<?xml version="1.0" standalone="no"?>
<!DOCTYPE svg PUBLIC "-//W3C//DTD SVG 1.1//EN" "http://www.w3.org/Graphics/SVG/1.1/DTD/svg11.dtd" >
<svg>
<metadata>
Created by FontForge 20090914 at Fri Jan 11 14:08:45 2013
 By www-data
Copyright (c) 1990, 1992 Adobe Systems Incorporated.  All Rights Reserved.
</metadata>
<defs>
<font id="DINEngschrift" horiz-adv-x="757" >
  <font-face 
    font-family="DINSchrift"
    font-weight="500"
    font-stretch="normal"
    units-per-em="2048"
    panose-1="0 0 0 0 0 0 0 0 0 0"
    ascent="1638"
    descent="-410"
    x-height="1038"
    cap-height="1458"
    bbox="-158 -512 2048 1919"
    underline-thickness="102"
    underline-position="-153"
    unicode-range="U+0020-U+FB02"
  />
<missing-glyph horiz-adv-x="2048" 
 />
    <glyph glyph-name=".notdef" horiz-adv-x="2048" 
 />
    <glyph glyph-name="space" unicode=" " horiz-adv-x="380" 
 />
    <glyph glyph-name="exclam" unicode="!" horiz-adv-x="491" 
d="M115 1458h262l-80 -1098h-102zM141 0v209h209v-209h-209z" />
    <glyph glyph-name="quotedbl" unicode="&#x22;" horiz-adv-x="569" 
d="M68 1098v360h163v-360h-163zM338 1098v360h164v-360h-164z" />
    <glyph glyph-name="numbersign" unicode="#" horiz-adv-x="761" 
d="M12 440v123h121l45 332h-102v123h119l59 440h139l-59 -440h172l59 440h140l-60 -440h105v-123h-121l-45 -332h102v-123h-119l-59 -440h-139l59 440h-172l-59 -440h-140l60 440h-105zM272 563h172l45 332h-172z" />
    <glyph glyph-name="dollar" unicode="$" horiz-adv-x="761" 
d="M23 330l0.00195312 82h208v-74c0 -34 8.16699 -64.167 24.5 -90.5s41.166 -43.166 74.499 -50.499v471l-70 28c-86 35.333 -145.333 82.5 -178 141.5s-49 136.833 -49 233.5c0 108 25.5 198.167 76.5 270.5s124.5 115.166 220.5 128.499v154h104v-154
c90 -11.333 163.333 -49 220 -113s85 -136 85 -216v-103h-209v47c0 96.667 -32 155.667 -96 177v-412l86 -35c87.333 -33.333 145.666 -79.666 174.999 -138.999s44 -146 44 -260c0 -264.667 -101.667 -407.334 -305 -428.001v-172h-104v172
c-89.333 10 -162.833 47 -220.5 111s-86.5 141 -86.5 231zM242.002 1073c0 -53.333 5.16699 -92 15.5 -116s34.5 -44.667 72.5 -62v367c-58.667 -22.667 -88 -85.667 -88 -189zM434.002 197c21.333 4.66699 38.668 12.833 52.001 24.5s23 27.667 29 48s10 41 12 62
s3 48.5 3 82.5c0 70 -5.83301 118 -17.5 144s-37.834 47.667 -78.501 65v-426z" />
    <glyph glyph-name="percent" unicode="%" horiz-adv-x="720" 
d="M18 1169l0.00195312 134c0 50.667 15.833 91.167 47.5 121.5s74.167 45.5 127.5 45.5s95.666 -15.167 126.999 -45.5s47 -70.833 47 -121.5v-134c0 -46 -15.833 -83.333 -47.5 -112s-73.834 -43 -126.501 -43s-95 14.333 -127 43s-48 66 -48 112zM43.002 0l500 1458h135
l-500 -1458h-135zM141.002 1190c0 -14.667 5.16699 -27.167 15.5 -37.5s22.5 -15.5 36.5 -15.5c13.333 0 25.166 5.16699 35.499 15.5s15.5 22.833 15.5 37.5v104c0 14.667 -5.16699 27.334 -15.5 38.001s-22.166 16 -35.499 16s-25.333 -5.33301 -36 -16
s-16 -23.334 -16 -38.001v-104zM354.002 143v133c0 51.333 15.833 92.166 47.5 122.499s73.834 45.5 126.501 45.5s94.834 -15.167 126.501 -45.5s47.5 -71.166 47.5 -122.499v-133c0 -46 -15.833 -83.333 -47.5 -112s-73.834 -43 -126.501 -43s-94.834 14.333 -126.501 43
s-47.5 66 -47.5 112zM477.002 164c0 -14.667 5.16699 -27.167 15.5 -37.5s22.166 -15.5 35.499 -15.5s25.333 5.16699 36 15.5s16 22.833 16 37.5v104c0 14.667 -5.33301 27.334 -16 38.001s-22.667 16 -36 16s-25.166 -5.33301 -35.499 -16s-15.5 -23.334 -15.5 -38.001
v-104z" />
    <glyph glyph-name="ampersand" unicode="&#x26;" horiz-adv-x="985" 
d="M74 326c0 74.667 17.499 142.332 52.499 202.999s84.167 119.334 147.5 176.001c-84.667 118.667 -127 230.334 -127 335.001c0 82 24.833 149.667 74.5 203s119.834 80 210.501 80c86 0 153.667 -25.333 203 -76s74 -113.334 74 -188.001c0 -118.667 -71 -241 -213 -367
c2.66699 -4 28.167 -45.667 76.5 -125s86.833 -139.333 115.5 -180l113 154l129 -90l-156 -201l158 -250h-209l-70 111c-82 -82 -174.667 -123 -278 -123c-84.667 0 -156 31.5 -214 94.5s-87 144.167 -87 243.5zM257.999 335.998c0 -50.667 14.832 -94 44.499 -130
s66.834 -54 111.501 -54c28.667 0 57.167 9 85.5 27s51.5 38.333 69.5 61l-200 319c-74 -76.667 -111 -151 -111 -223zM331.998 1036c0 -52.667 26.667 -122.999 80 -210.999c83.333 80 125 156.667 125 230c0 26.667 -9.5 50.667 -28.5 72s-43.167 32 -72.5 32
c-30.667 0 -55.667 -12.333 -75 -37s-29 -53.334 -29 -86.001z" />
    <glyph glyph-name="quotesingle" unicode="'" horiz-adv-x="380" 
d="M109 1098v360h163v-360h-163z" />
    <glyph glyph-name="parenleft" unicode="(" horiz-adv-x="454" 
d="M102 627c0 142 21.833 287.832 65.5 437.499s103.167 280.834 178.5 393.501h70c-70 -246 -105 -542.333 -105 -889c0 -263.333 35 -521.333 105 -774h-70c-78.667 114 -139 246.333 -181 397s-63 295.667 -63 435z" />
    <glyph glyph-name="parenright" unicode=")" horiz-adv-x="454" 
d="M39 -205c69.333 243.333 103.998 539.666 103.998 888.999c0 266 -34.667 524 -104 774h70c78.667 -114 138.834 -246.167 180.501 -396.5s62.5 -295.166 62.5 -434.499c0 -142 -21.667 -288 -65 -438s-102.666 -281.333 -177.999 -394h-70z" />
    <glyph glyph-name="asterisk" unicode="*" 
d="M63 1010l205 112l-205 115l58 106l201 -122l-9 237h131l-8 -237l201 122l57 -106l-205 -115l205 -112l-57 -109l-201 123l8 -238h-131l9 238l-201 -123z" />
    <glyph glyph-name="plus" unicode="+" horiz-adv-x="1228" 
d="M96 436v164h436v436h164v-436h437v-164h-437v-436h-164v436h-436z" />
    <glyph glyph-name="comma" unicode="," horiz-adv-x="380" 
d="M86 -152v361h209v-209z" />
    <glyph glyph-name="hyphen" unicode="-" horiz-adv-x="796" 
d="M90 463v209h617v-209h-617z" />
    <glyph glyph-name="period" unicode="." horiz-adv-x="380" 
d="M86 0v209h209v-209h-209z" />
    <glyph glyph-name="slash" unicode="/" horiz-adv-x="454" 
d="M10 -12l271 1482h163l-270 -1482h-164z" />
    <glyph glyph-name="zero" unicode="0" horiz-adv-x="761" 
d="M70 301v856c0 94 30.167 169.667 90.5 227s133.833 86 220.5 86s160.167 -28.667 220.5 -86s90.5 -133 90.5 -227v-856c0 -94 -30.167 -169.667 -90.5 -227s-133.833 -86 -220.5 -86s-160.167 28.667 -220.5 86s-90.5 133 -90.5 227zM279 301
c0 -29.333 9.66699 -54 29 -74s43.666 -30 72.999 -30s53.666 10 72.999 30s29 44.667 29 74v856c0 30 -9.66699 55 -29 75s-43.666 30 -72.999 30s-53.666 -10 -72.999 -30s-29 -45 -29 -75v-856z" />
    <glyph glyph-name="one" unicode="1" horiz-adv-x="761" 
d="M109 1083v222l208 153h209v-1458h-209v1237z" />
    <glyph glyph-name="two" unicode="2" horiz-adv-x="761" 
d="M70 0l0.000976562 196.997l376 710c16.667 32.667 27 61.334 31 86.001s6 60.334 6 107.001c0 20 -0.166992 35.333 -0.5 46s-2.33301 24.667 -6 42s-8.83398 30.5 -15.501 39.5s-16.834 17 -30.501 24s-30.167 10.5 -49.5 10.5
c-31.333 0 -56.166 -9.16699 -74.499 -27.5s-27.5 -44.166 -27.5 -77.499v-119h-209v115c0 87.333 30.5 162 91.5 224s134.833 93 221.5 93c52.667 0 99.167 -9.83301 139.5 -29.5s72.666 -46.667 96.999 -81s42.5 -73 54.5 -116s18 -89.5 18 -139.5
c0 -74 -3.66699 -128 -11 -162s-26.666 -81 -57.999 -141l-308 -592h377v-209h-622z" />
    <glyph glyph-name="three" unicode="3" horiz-adv-x="761" 
d="M70 299l-0.00488281 119.001h209v-109c0 -33.333 9.16699 -60.333 27.5 -81s43.166 -31 74.499 -31s56.166 10.333 74.499 31s27.5 49 27.5 85v209c0 56 -10.667 92.833 -32 110.5s-66 26.5 -134 26.5v185c65.333 0 109.333 8 132 24s34 50.333 34 103v188
c0 30 -9.33301 54.667 -28 74s-43.334 29 -74.001 29c-34 0 -59.5 -10.833 -76.5 -32.5s-25.5 -45.167 -25.5 -70.5v-119h-209v121c0 85.333 30.833 158.166 92.5 218.499s135.834 90.5 222.501 90.5c51.333 0 96.333 -10.167 135 -30.5s69.334 -44.166 92.001 -71.499
c30 -35.333 50.833 -73.666 62.5 -114.999s17.5 -106 17.5 -194c0 -44.667 -0.833008 -79.167 -2.5 -103.5s-4.5 -47.333 -8.5 -69s-11.167 -39.334 -21.5 -53.001s-22.666 -26.5 -36.999 -38.5s-34.166 -25.667 -59.499 -41c16.667 -10 30.834 -19.333 42.501 -28
s22.334 -18.5 32.001 -29.5s17.334 -20.333 23.001 -28s10.667 -19.167 15 -34.5s7.5 -27.833 9.5 -37.5s3.66699 -26 5 -49s2 -41.833 2 -56.5v-71c0 -93.333 -3.5 -158.333 -10.5 -195s-21.833 -71.334 -44.5 -104.001c-59.333 -88.667 -145.333 -133 -258 -133
c-35.333 0 -70.333 5.66699 -105 17s-67.667 28.666 -99 51.999s-56.666 55.833 -75.999 97.5s-29 89.834 -29 144.501z" />
    <glyph glyph-name="four" unicode="4" horiz-adv-x="761" 
d="M18 217v197l301 1044h222l-314 -1044h207v415h209v-415h100v-197h-100v-217h-209v217h-416z" />
    <glyph glyph-name="five" unicode="5" horiz-adv-x="761" 
d="M70 301l0.000976562 60.998h209v-53c0 -35.333 9.83301 -62.833 29.5 -82.5s45.167 -29.5 76.5 -29.5c30.667 0 54.667 9.5 72 28.5s26 45.5 26 79.5v342c0 28.667 -9.33301 53.334 -28 74.001s-42 31 -70 31c-16.667 0 -31.334 -2.5 -44.001 -7.5
s-23.5 -13.167 -32.5 -24.5s-14.667 -19.166 -17 -23.499s-6.5 -12.5 -12.5 -24.5h-185v786h598v-196h-413v-394c48 45.333 106 68 174 68c72 0 129.833 -22.5 173.5 -67.5s65.5 -108.5 65.5 -190.5v-377c0 -94 -30.167 -169.667 -90.5 -227s-133.833 -86 -220.5 -86
s-160.167 28.667 -220.5 86s-90.5 133 -90.5 227z" />
    <glyph glyph-name="six" unicode="6" horiz-adv-x="761" 
d="M70 426c0 85.333 2.66699 146.001 8 182.001s15.666 75 30.999 117l274 733h233l-237 -612l4 -4c16.667 12 46 18 88 18c36 0 69.833 -8.83301 101.5 -26.5s56.5 -40.167 74.5 -67.5c18.667 -28.667 30.834 -64 36.501 -106s8.5 -120 8.5 -234
c0 -93.333 -2.83301 -157.833 -8.5 -193.5s-18.5 -70.167 -38.5 -103.5c-26.667 -44.667 -63 -79.334 -109 -104.001s-97.667 -37 -155 -37c-56 0 -106.667 12.333 -152 37s-82 59.334 -110 104.001c-20.667 33.333 -34 67.666 -40 102.999s-9 100 -9 194zM279 301.001
c0 -30.667 10.167 -55.667 30.5 -75s44.166 -29 71.499 -29s51.166 9.66699 71.499 29s30.5 44.333 30.5 75v270c0 30.667 -10.167 55.834 -30.5 75.501s-44.166 29.5 -71.499 29.5s-51.166 -9.83301 -71.499 -29.5s-30.5 -44.834 -30.5 -75.501v-270z" />
    <glyph glyph-name="seven" unicode="7" horiz-adv-x="761" 
d="M70 1094v364h622v-209l-354 -1249h-221l366 1262h-229v-168h-184z" />
    <glyph glyph-name="eight" unicode="8" horiz-adv-x="761" 
d="M70 408c0 118 5.49902 198.168 16.499 240.501s40.167 81.5 87.5 117.5c-47.333 38 -76.5 76 -87.5 114s-16.5 103.667 -16.5 197c0 76.667 5.33301 133.5 16 170.5s30.334 73.833 59.001 110.5c27.333 36 61.666 63.667 102.999 83s85.666 29 132.999 29
s91.5 -9.66699 132.5 -29s75.167 -47 102.5 -83c29.333 -37.333 49.333 -74.333 60 -111s16 -93.334 16 -170.001c0 -93.333 -5.5 -159 -16.5 -197s-40.167 -76 -87.5 -114c47.333 -36 76.5 -75.167 87.5 -117.5s16.5 -122.5 16.5 -240.5
c0 -86 -3.83301 -147.833 -11.5 -185.5s-22.834 -72.834 -45.501 -105.501c-25.333 -38.667 -59.666 -69.834 -102.999 -93.501s-93.666 -35.5 -150.999 -35.5s-107.666 11.833 -150.999 35.5s-77.666 54.834 -102.999 93.501
c-22.667 32.667 -37.834 67.834 -45.501 105.501s-11.5 99.5 -11.5 185.5zM278.999 299.001c0 -28 10.333 -52 31 -72s44.334 -30 71.001 -30s50.334 10 71.001 30s31 44 31 72v287c0 28 -10.333 52 -31 72s-44.334 30 -71.001 30s-50.334 -10 -71.001 -30s-31 -44 -31 -72
v-287zM278.999 946.001c0 -28 10.333 -52 31 -72s44.334 -30 71.001 -30s50.334 10 71.001 30s31 44 31 72v213c0 28 -10.333 52.167 -31 72.5s-44.334 30.5 -71.001 30.5s-50.334 -10.167 -71.001 -30.5s-31 -44.5 -31 -72.5v-213z" />
    <glyph glyph-name="nine" unicode="9" horiz-adv-x="761" 
d="M70 1032c0 93.333 2.83301 157.832 8.5 193.499s18.5 70.167 38.5 103.5c26.667 44.667 63 79.334 109 104.001s97.667 37 155 37c56 0 106.667 -12.333 152 -37s82 -59.334 110 -104.001c20.667 -33.333 34 -67.666 40 -102.999s9 -100 9 -194
c0 -85.333 -2.66699 -146 -8 -182s-15.666 -75 -30.999 -117l-274 -733h-234l238 612l-4 4c-16.667 -12 -46 -18 -88 -18c-36 0 -69.833 8.83301 -101.5 26.5s-56.5 40.167 -74.5 67.5c-18.667 28.667 -30.834 64 -36.501 106s-8.5 120 -8.5 234zM279 886.999
c0 -30.667 10.167 -55.834 30.5 -75.501s44.166 -29.5 71.499 -29.5s51.166 9.83301 71.499 29.5s30.5 44.834 30.5 75.501v270c0 30.667 -10.167 55.834 -30.5 75.501s-44.166 29.5 -71.499 29.5s-51.166 -9.83301 -71.499 -29.5s-30.5 -44.834 -30.5 -75.501v-270z" />
    <glyph glyph-name="colon" unicode=":" horiz-adv-x="380" 
d="M86 0v209h209v-209h-209zM86 465v209h209v-209h-209z" />
    <glyph glyph-name="semicolon" unicode=";" horiz-adv-x="380" 
d="M86 -152v361h209v-209zM86 465v209h209v-209h-209z" />
    <glyph glyph-name="less" unicode="&#x3c;" horiz-adv-x="1228" 
d="M96 457v123l1037 473v-164l-814 -371l814 -371v-163z" />
    <glyph glyph-name="equal" unicode="=" horiz-adv-x="1228" 
d="M96 231v164h1037v-164h-1037zM96 641v164h1037v-164h-1037z" />
    <glyph glyph-name="greater" unicode="&#x3e;" horiz-adv-x="1228" 
d="M96 -16v163l813 371l-813 371v164l1037 -473v-123z" />
    <glyph glyph-name="question" unicode="?" 
d="M66 1038l0.000976562 121.002c0 86 30.667 159.333 92 220s135.666 91 222.999 91c50 0 96 -10 138 -30s76.667 -48.667 104 -86c27.333 -36.667 45.666 -71.834 54.999 -105.501s14 -81.834 14 -144.501c0 -70.667 -2.16699 -121.834 -6.5 -153.501
s-13.166 -58.5 -26.499 -80.5l-141 -241c-23.333 -42.667 -35 -77.667 -35 -105v-164h-209v191c0 53.333 17.333 108.666 52 165.999l131 213c17.333 30.667 26 70.334 26 119.001v108c0 28.667 -10 53.334 -30 74.001s-44 31 -72 31c-27.333 0 -52 -9.5 -74 -28.5
s-33 -44.5 -33 -76.5v-119h-208zM274.001 0.00195312v209h209v-209h-209z" />
    <glyph glyph-name="at" unicode="@" horiz-adv-x="1638" 
d="M111 733c0 134 35.001 257.666 105.001 370.999s164.333 202.666 283 267.999s247.334 98 386.001 98c128 0 245.833 -25.833 353.5 -77.5s193.667 -124.5 258 -218.5s96.5 -199.333 96.5 -316c0 -65.333 -10.5 -128.666 -31.5 -189.999s-48.5 -114.666 -82.5 -159.999
s-71.667 -85.166 -113 -119.499s-82.833 -60.166 -124.5 -77.499s-80.167 -26 -115.5 -26c-96 0 -149 43 -159 129h-4c-19.333 -20.667 -35.166 -36.667 -47.499 -48s-29.166 -24.333 -50.499 -39s-44.5 -25.334 -69.5 -32.001s-52.5 -10 -82.5 -10
c-86 0 -156.333 30 -211 90s-82 133.667 -82 221c0 54 7.33301 108 22 162s36.167 104.833 64.5 152.5s61.5 90 99.5 127s82.333 66.167 133 87.5s104 32 160 32c51.333 0 98.666 -13.5 141.999 -40.5s74.666 -66.833 93.999 -119.5h4l41 125h129l-179 -563
c-13.333 -41.333 -20 -72 -20 -92c0 -39.333 15.667 -59 47 -59c42 0 85 22.833 129 68.5s80 103 108 172s42 135.5 42 199.5c0 92.667 -25.5 176.667 -76.5 252s-118.333 133.333 -202 174s-173.834 61 -270.501 61c-84 0 -164.5 -17 -241.5 -51s-142.833 -79 -197.5 -135
s-98.334 -121.333 -131.001 -196s-49 -151.334 -49 -230.001c0 -110 27.667 -210.833 83 -302.5s131.166 -164.167 227.499 -217.5s202.5 -80 318.5 -80c96.667 0 191.5 20.667 284.5 62s164.167 92.333 213.5 153h157c-66 -108.667 -159.167 -194.167 -279.5 -256.5
s-250.833 -93.5 -391.5 -93.5c-141.333 0 -270.666 32 -387.999 96s-210.333 153.167 -279 267.5s-103 241.5 -103 381.5zM584.001 609.999c0 -56.667 15.334 -100.5 46.001 -131.5s72 -46.5 124 -46.5c49.333 0 97.5 22.667 144.5 68s84.167 99.5 111.5 162.5
s41 122.167 41 177.5c0 50 -13.5 90.833 -40.5 122.5s-64.167 47.5 -111.5 47.5c-56.667 0 -109.834 -21.5 -159.501 -64.5s-88 -95.167 -115 -156.5s-40.5 -121 -40.5 -179z" />
    <glyph glyph-name="A" unicode="A" horiz-adv-x="833" 
d="M4 0l326 1458h174l325 -1458h-208l-62 313h-285l-61 -313h-209zM311 510h209l-102 528h-4z" />
    <glyph glyph-name="B" unicode="B" horiz-adv-x="872" 
d="M98 0v1458h305c65.333 0 122.5 -10.167 171.5 -30.5s87.667 -48 116 -83s49.333 -73.833 63 -116.5s20.5 -88.667 20.5 -138v-54c0 -73.333 -11.167 -128.833 -33.5 -166.5s-58.833 -72.167 -109.5 -103.5c49.333 -23.333 85.5 -58 108.5 -104s34.5 -107 34.5 -183v-82
c0 -264.667 -130.333 -397 -391 -397h-285zM307 209h89.998c32.667 0 60.334 4.16699 83.001 12.5s40.334 19 53.001 32s22.5 31 29.5 54s11.333 45 13 66s2.5 48.167 2.5 81.5c0 78.667 -11.833 135.167 -35.5 169.5s-71.5 51.5 -143.5 51.5h-92v-467zM306.998 860h93.999
c66.667 0 112.834 16.5 138.501 49.5s38.5 84.833 38.5 155.5c0 66.667 -14.167 116.167 -42.5 148.5s-75.833 48.5 -142.5 48.5h-86v-402z" />
    <glyph glyph-name="C" unicode="C" horiz-adv-x="833" 
d="M86 332l0.000976562 802.999c0 96 31.667 175.833 95 239.5s145 95.5 245 95.5c96.667 0 176.834 -32.667 240.501 -98s95.5 -148.666 95.5 -249.999v-82h-209v70c0 42.667 -11.833 78.667 -35.5 108s-54.834 44 -93.501 44c-48.667 0 -82.334 -14.667 -101.001 -44
s-28 -71.333 -28 -126v-746c0 -99.333 42.333 -149 127 -149c34.667 0 65.167 11.5 91.5 34.5s39.5 60.5 39.5 112.5v72h209v-90c0 -91.333 -32.333 -170.5 -97 -237.5s-143 -100.5 -235 -100.5c-43.333 0 -84 5.66699 -122 17s-74.333 29.5 -109 54.5
s-62.167 60.833 -82.5 107.5s-30.5 101.667 -30.5 165z" />
    <glyph glyph-name="D" unicode="D" horiz-adv-x="872" 
d="M98 0l0.000976562 1458h310c117.333 0 207.666 -33.167 270.999 -99.5s95 -158.833 95 -277.5v-682c0 -133.333 -33 -233.166 -99 -299.499s-161.333 -99.5 -286 -99.5h-291zM307.001 196.999h95.999c58 0 99.5 14.5 124.5 43.5s37.5 75.167 37.5 138.5v702
c0 60.667 -12.167 106 -36.5 136s-66.166 45 -125.499 45h-96v-1065z" />
    <glyph glyph-name="E" unicode="E" 
d="M98 0v1458h623v-196h-414v-428h361v-197h-361v-428h414v-209h-623z" />
    <glyph glyph-name="F" unicode="F" 
d="M98 0v1458h623v-196h-414v-443h361v-196h-361v-623h-209z" />
    <glyph glyph-name="G" unicode="G" horiz-adv-x="872" 
d="M86 344v770c0 57.333 10.167 109.166 30.5 155.499s47.333 83.833 81 112.5s71 50.5 112 65.5s83.167 22.5 126.5 22.5s85.5 -7.5 126.5 -22.5s78.333 -36.833 112 -65.5s60.667 -66.167 81 -112.5s30.5 -98.166 30.5 -155.499v-74h-208v74
c0 47.333 -13.5 83.833 -40.5 109.5s-60.833 38.5 -101.5 38.5s-74.334 -12.667 -101.001 -38s-40 -62 -40 -110v-770c0 -47.333 13.333 -83.666 40 -108.999s60.334 -38 101.001 -38s74.5 12.667 101.5 38s40.5 61.666 40.5 108.999v274h-166v185h374v-459
c0 -57.333 -10.167 -109.166 -30.5 -155.499s-47.333 -83.833 -81 -112.5s-71 -50.5 -112 -65.5s-83.167 -22.5 -126.5 -22.5s-85.5 7.5 -126.5 22.5s-78.333 36.833 -112 65.5s-60.667 66.167 -81 112.5s-30.5 98.166 -30.5 155.499z" />
    <glyph glyph-name="H" unicode="H" horiz-adv-x="872" 
d="M98 0v1458h209v-624h258v624h209v-1458h-209v649h-258v-649h-209z" />
    <glyph glyph-name="I" unicode="I" horiz-adv-x="417" 
d="M104 0v1458h209v-1458h-209z" />
    <glyph glyph-name="J" unicode="J" horiz-adv-x="681" 
d="M-45 119l163.997 131c35.333 -35.333 73.333 -53 114 -53c14.667 0 29.334 2.5 44.001 7.5s29.834 13.5 45.501 25.5s28.334 30.333 38.001 55s14.5 54 14.5 88v1085h209v-1114c0 -100 -32.5 -184.333 -97.5 -253s-151.5 -103 -259.5 -103
c-103.333 0 -194 43.667 -272 131z" />
    <glyph glyph-name="K" unicode="K" horiz-adv-x="872" 
d="M98 0v1458h209v-665h4l305 665h209l-284 -584l338 -874h-222l-237 647l-113 -211v-436h-209z" />
    <glyph glyph-name="L" unicode="L" 
d="M98 0v1458h209v-1249h414v-209h-623z" />
    <glyph glyph-name="M" unicode="M" horiz-adv-x="1138" 
d="M98 0v1458h201l268 -772h4l267 772h202v-1458h-209v887h-4l-206 -627h-105l-205 627h-4v-887h-209z" />
    <glyph glyph-name="N" unicode="N" horiz-adv-x="909" 
d="M90 0v1458h201l315 -878h4v878h209v-1458h-196l-320 877h-4v-877h-209z" />
    <glyph glyph-name="O" unicode="O" horiz-adv-x="872" 
d="M86 344v770c0 57.333 10.167 109.166 30.5 155.499s47.333 83.833 81 112.5s71 50.5 112 65.5s83.167 22.5 126.5 22.5s85.5 -7.5 126.5 -22.5s78.333 -36.833 112 -65.5s60.667 -66.167 81 -112.5s30.5 -98.166 30.5 -155.499v-770
c0 -57.333 -10.167 -109.166 -30.5 -155.499s-47.333 -83.833 -81 -112.5s-71 -50.5 -112 -65.5s-83.167 -22.5 -126.5 -22.5s-85.5 7.5 -126.5 22.5s-78.333 36.833 -112 65.5s-60.667 66.167 -81 112.5s-30.5 98.166 -30.5 155.499zM295 344
c0 -47.333 13.333 -83.666 40 -108.999s60.334 -38 101.001 -38s74.5 12.667 101.5 38s40.5 61.666 40.5 108.999v770c0 47.333 -13.5 83.833 -40.5 109.5s-60.833 38.5 -101.5 38.5s-74.334 -12.667 -101.001 -38s-40 -62 -40 -110v-770z" />
    <glyph glyph-name="P" unicode="P" horiz-adv-x="833" 
d="M98 0v1458h314c59.333 0 110.333 -7.83301 153 -23.5s81.667 -41.834 117 -78.501c35.333 -37.333 59.833 -81.5 73.5 -132.5s20.5 -120.833 20.5 -209.5c0 -68.667 -4 -125.167 -12 -169.5s-23.667 -85.5 -47 -123.5c-61.333 -101.333 -162.333 -152 -303 -152h-107
v-569h-209zM307 766.001h100.998c20.667 0 39.334 1.33301 56.001 4s30.834 7.5 42.501 14.5s21.834 13.833 30.501 20.5s15.667 16.667 21 30s9.5 25 12.5 35s5.16699 24.333 6.5 43s2.16602 34.167 2.49902 46.5s0.5 29.833 0.5 52.5s-0.166992 39.5 -0.5 50.5
s-1 26.167 -2 45.5s-3 34 -6 44s-7 22 -12 36s-11.5 24.5 -19.5 31.5s-17.667 14.333 -29 22s-25 13 -41 16s-34 4.5 -54 4.5h-109v-496z" />
    <glyph glyph-name="Q" unicode="Q" horiz-adv-x="872" 
d="M86 344v770.001c0 57.333 10.167 109.166 30.5 155.499s47.333 83.833 81 112.5s71 50.5 112 65.5s83.167 22.5 126.5 22.5s85.5 -7.5 126.5 -22.5s78.333 -36.833 112 -65.5s60.667 -66.167 81 -112.5s30.5 -98.166 30.5 -155.499v-770c0 -56 -10 -105.667 -30 -149
l129 -105l-107 -127l-123 100c-62 -50 -135 -75 -219 -75c-43.333 0 -85.5 7.5 -126.5 22.5s-78.333 36.833 -112 65.5s-60.667 66.167 -81 112.5s-30.5 98.166 -30.5 155.499zM295 344.001c0 -47.333 13.333 -83.667 40 -109s60.334 -38 101.001 -38
c17.333 0 32.333 2.66699 45 8l-94 76l107 127l84 -68v774c0 47.333 -13.5 83.833 -40.5 109.5s-60.833 38.5 -101.5 38.5s-74.334 -12.667 -101.001 -38s-40 -62 -40 -110v-770z" />
    <glyph glyph-name="R" unicode="R" horiz-adv-x="872" 
d="M98 0v1458h336c246 0 369 -142.667 369 -428c0 -87.333 -14 -160.833 -42 -220.5s-74 -107.5 -138 -143.5l225 -666h-221l-195 623h-125v-623h-209zM307 807h119c68 0 113 17.833 135 53.5s33 93.5 33 173.5c0 40 -2.16699 72.833 -6.5 98.5s-12.5 49 -24.5 70
s-30 36.167 -54 45.5s-55 14 -93 14h-109v-455z" />
    <glyph glyph-name="S" unicode="S" horiz-adv-x="831" 
d="M57 334v78h209v-66c0 -42 12.333 -77.333 37 -106s61.667 -43 111 -43c34 0 61.5 4.66699 82.5 14s36.333 24.666 46 45.999s15.834 43.166 18.501 65.499s4 52.833 4 91.5c0 53.333 -3.33301 93 -10 119s-17.667 45.833 -33 59.5s-41.333 27.834 -78 42.501l-149 61
c-86 35.333 -145.333 82.5 -178 141.5s-49 136.833 -49 233.5c0 116 30.833 211.5 92.5 286.5s150.167 112.5 265.5 112.5c66.667 0 127.167 -16.167 181.5 -48.5s95.666 -73.5 123.999 -123.5s42.5 -102.333 42.5 -157v-103h-209v47c0 52 -12 94.5 -36 127.5
s-61 49.5 -111 49.5c-94.667 0 -142 -63 -142 -189c0 -60 6.83301 -102.167 20.5 -126.5s46.5 -46.833 98.5 -67.5l160 -64c87.333 -33.333 145.666 -79.666 174.999 -138.999s44 -146 44 -260c0 -285.333 -120 -428 -360 -428c-101.333 0 -186.166 33 -254.499 99
s-102.5 148.333 -102.5 247z" />
    <glyph glyph-name="T" unicode="T" horiz-adv-x="679" 
d="M-6 1262v196h692v-196h-242v-1262h-208v1262h-242z" />
    <glyph glyph-name="U" unicode="U" horiz-adv-x="872" 
d="M98 328l-0.00195312 1130h209v-1110c0 -49.333 11.833 -86.833 35.5 -112.5s54.834 -38.5 93.501 -38.5s69.834 12.833 93.501 38.5s35.5 63.167 35.5 112.5v1110h209v-1130c0 -94.667 -33 -175 -99 -241s-145.667 -99 -239 -99s-173 33 -239 99s-99 146.333 -99 241z
" />
    <glyph glyph-name="V" unicode="V" horiz-adv-x="833" 
d="M27 1458h221l166 -1018h4l168 1018h221l-299 -1458h-184z" />
    <glyph glyph-name="W" unicode="W" horiz-adv-x="1214" 
d="M33 1458h221l104 -926h4l164 926h160l170 -948h4l101 948h221l-217 -1458h-197l-160 946h-4l-158 -946h-196z" />
    <glyph glyph-name="X" unicode="X" horiz-adv-x="796" 
d="M-4 0l295 764l-273 694h222l157 -432l160 432h221l-278 -694l301 -764h-221l-183 492l-180 -492h-221z" />
    <glyph glyph-name="Y" unicode="Y" horiz-adv-x="794" 
d="M6 1458h221l168 -579h4l168 579h221l-286 -842v-616h-209v616z" />
    <glyph glyph-name="Z" unicode="Z" horiz-adv-x="681" 
d="M31 0v184l393 1078h-373v196h600v-166l-401 -1095h401v-197h-620z" />
    <glyph glyph-name="bracketleft" unicode="[" horiz-adv-x="454" 
d="M119 -205v1663h319v-123h-135v-1417h135v-123h-319z" />
    <glyph glyph-name="backslash" unicode="\" horiz-adv-x="454" 
d="M10 1470h164l270 -1482h-163z" />
    <glyph glyph-name="bracketright" unicode="]" horiz-adv-x="454" 
d="M16 -82h136v1417h-136v123h320v-1663h-320v123z" />
    <glyph glyph-name="asciicircum" unicode="^" horiz-adv-x="1228" 
d="M102 580l445 878h135l444 -878h-163l-349 694l-348 -694h-164z" />
    <glyph glyph-name="underscore" unicode="_" horiz-adv-x="1024" 
d="M0 -154h1024v-102h-1024v102z" />
    <glyph glyph-name="grave" unicode="`" horiz-adv-x="380" 
d="M-82 1464h221l185 -288h-136z" />
    <glyph glyph-name="a" unicode="a" 
d="M51 264c0 62 5.00195 114 15.002 156s27.333 78.167 52 108.5s58.5 52.5 101.5 66.5s96.833 21 161.5 21c10.667 0 27 -0.833008 49 -2.5s39 -2.83398 51 -3.50098v109c0 82 -34.667 123 -104 123c-28 0 -53.333 -9.33301 -76 -28s-37 -44.334 -43 -77.001h-203
c6 92.667 37.833 168.167 95.5 226.5s133.167 87.5 226.5 87.5c91.333 0 166.333 -28.5 225 -85.5s88 -137.833 88 -242.5v-723h-209v106h-4c-30 -42 -59.333 -72.167 -88 -90.5s-66.334 -27.5 -113.001 -27.5c-27.333 0 -52.833 3.83301 -76.5 11.5
s-47.334 20.834 -71.001 39.501s-42.5 47.334 -56.5 86.001s-21 85 -21 139zM260.002 305c0 -40.667 9.66699 -73 29 -97s46 -36 80 -36c35.333 0 62.833 11.667 82.5 35s29.5 56 29.5 98v141c-26.667 4.66699 -45.667 7 -57 7c-49.333 0 -89 -11.667 -119 -35
s-45 -61 -45 -113z" />
    <glyph glyph-name="b" unicode="b" horiz-adv-x="796" 
d="M86 0l0.000976562 1458h209v-514h4c47.333 71.333 111.666 107 192.999 107c84 0 146 -31.667 186 -95c13.333 -21.333 22.166 -49.333 26.499 -84s6.5 -90.334 6.5 -167.001v-396c0 -106.667 -11.667 -181 -35 -223c-35.333 -65.333 -96 -98 -182 -98
c-24.667 0 -46.667 2.33301 -66 7s-37.333 13 -54 25s-29.667 22.5 -39 31.5s-22.666 23.167 -39.999 42.5v-94h-209zM295.001 326.001c0 -38 9.5 -69 28.5 -93s44.167 -36 75.5 -36c34.667 0 60.5 12.5 77.5 37.5s25.5 59.5 25.5 103.5v381c0 82 -34.333 123 -103 123
c-30 0 -54.833 -10.667 -74.5 -32s-29.5 -48.333 -29.5 -81v-403z" />
    <glyph glyph-name="c" unicode="c" 
d="M98 348v342.003c0 93.333 13 163.666 39 210.999c25.333 46 61.666 82.5 108.999 109.5s102 40.5 164 40.5c95.333 0 171 -30.833 227 -92.5s84 -141.5 84 -239.5h-209c0 82 -34 123 -102 123c-32 0 -57.167 -10.167 -75.5 -30.5s-27.5 -49.833 -27.5 -88.5v-424
c0 -32.667 9.16699 -57.834 27.5 -75.501s43.5 -26.5 75.5 -26.5c62 0 96 34.667 102 104h209c0 -90.667 -29 -165.5 -87 -224.5s-132.667 -88.5 -224 -88.5c-62 0 -116.667 13.333 -164 40s-83.666 63 -108.999 109c-26 47.333 -39 117.666 -39 210.999z" />
    <glyph glyph-name="d" unicode="d" horiz-adv-x="796" 
d="M86 309l0.000976562 395.999c0 76.667 2.16699 132.334 6.5 167.001s13.166 62.667 26.499 84c40 63.333 102 95 186 95c81.333 0 145.666 -35.667 192.999 -107h4v514h209v-1458h-209v94c-17.333 -19.333 -30.666 -33.5 -39.999 -42.5s-22.333 -19.5 -39 -31.5
s-34.667 -20.333 -54 -25s-41.333 -7 -66 -7c-86 0 -146.667 32.667 -182 98c-23.333 42 -35 116.333 -35 223zM295.001 337.999c0 -94 34.001 -141 102.001 -141c31.333 0 56.666 12 75.999 36s29 55 29 93v403c0 32.667 -10 59.667 -30 81s-45 32 -75 32
c-68 0 -102 -41 -102 -123v-381z" />
    <glyph glyph-name="e" unicode="e" 
d="M68 348v342c0 94.667 12.667 165 38 211s61.666 82.5 108.999 109.5s102 40.5 164 40.5c94.667 0 170.167 -30.667 226.5 -92s84.5 -138.666 84.5 -231.999v-287h-414v-141c0 -32.667 9.16699 -57.834 27.5 -75.501s43.5 -26.5 75.5 -26.5c62 0 96 34.667 102 104h209
c0 -90.667 -29 -165.5 -87 -224.5s-132.667 -88.5 -224 -88.5c-62 0 -116.667 13.333 -164 40s-83.666 63 -108.999 109s-38 116.333 -38 211zM276 604h205v119c0 38.667 -9 68.167 -27 88.5s-43 30.5 -75 30.5s-57.167 -10.167 -75.5 -30.5s-27.5 -49.833 -27.5 -88.5v-119
z" />
    <glyph glyph-name="f" unicode="f" horiz-adv-x="454" 
d="M10 874v164.001h103v142c0 48.667 7.5 91.334 22.5 128.001s35.333 65.667 61 87s54 37.166 85 47.499s64.167 15.5 99.5 15.5h96v-196h-94c-19.333 0 -34.333 -6.33301 -45 -19s-16 -30.334 -16 -53.001v-152h155v-164h-155v-874h-209v874h-103z" />
    <glyph glyph-name="g" unicode="g" horiz-adv-x="796" 
d="M86 -121l209.003 -0.000976562c1.33301 -26.667 11.666 -50.334 30.999 -71.001s46 -31 80 -31c64 0 96 37.333 96 112v205h-4c-46.667 -70.667 -111.667 -106 -195 -106c-86 0 -146.667 32.667 -182 98c-23.333 42 -35 116.333 -35 223v396
c0 76.667 2.16699 132.334 6.5 167.001s13.166 62.667 26.499 84c40 63.333 102 95 186 95c32 0 60.833 -5.5 86.5 -16.5s44.667 -22.333 57 -34s30.166 -30.5 53.499 -56.5v94h209v-1165c0 -36.667 -6.16699 -72.5 -18.5 -107.5s-30.666 -67.5 -54.999 -97.5
s-57.333 -54.167 -99 -72.5s-88.834 -27.5 -141.501 -27.5c-34 0 -67 5.33301 -99 16s-63.167 27.334 -93.5 50.001s-56 55 -77 97s-34.833 91.333 -41.5 148zM295.003 318.999c0 -81.333 33.999 -122 101.999 -122c30 0 55 10.5 75 31.5s30 47.833 30 80.5v404
c0 38 -9.66699 69 -29 93s-44.666 36 -75.999 36c-68 0 -102 -47.333 -102 -142v-381z" />
    <glyph glyph-name="h" unicode="h" horiz-adv-x="796" 
d="M86 0v1458h209v-520h4c49.333 75.333 115 113 197 113c59.333 0 110 -20.833 152 -62.5s63 -105.5 63 -191.5v-797h-209v719c0 38.667 -9 68.834 -27 90.501s-43.333 32.5 -76 32.5c-37.333 0 -64 -12 -80 -36s-24 -60 -24 -108v-698h-209z" />
    <glyph glyph-name="i" unicode="i" horiz-adv-x="380" 
d="M86 0v1038h209v-1038h-209zM86 1249v209h209v-209h-209z" />
    <glyph glyph-name="j" unicode="j" horiz-adv-x="380" 
d="M-45 -223c50.667 0 85.167 12.832 103.5 38.499s27.5 76.167 27.5 151.5v1071h209v-1149c0 -99.333 -31.167 -175.666 -93.5 -228.999s-144.5 -80 -246.5 -80v197zM86 1249v209h209v-209h-209z" />
    <glyph glyph-name="k" unicode="k" horiz-adv-x="796" 
d="M86 0v1458h209v-872h4l252 452h209l-248 -422l299 -616h-227l-189 449l-100 -158v-291h-209z" />
    <glyph glyph-name="l" unicode="l" horiz-adv-x="380" 
d="M74 279l0.000976562 1179h209v-1165c0 -38.667 7 -65.5 21 -80.5s41 -24.5 81 -28.5v-196c-52 0 -95.667 4 -131 12s-67.333 22.167 -96 42.5s-49.834 50 -63.501 89s-20.5 88.167 -20.5 147.5z" />
    <glyph glyph-name="m" unicode="m" horiz-adv-x="1212" 
d="M86 0l-0.00195312 1038h209v-100h4c49.333 75.333 115 113 197 113c73.333 0 135.333 -35 186 -105c30.667 34 61.834 60 93.501 78s72.834 27 123.501 27c60 0 112.833 -21 158.5 -63s68.5 -105.667 68.5 -191v-797h-208v719c0 38.667 -9 68.834 -27 90.501
s-43.333 32.5 -76 32.5c-37.333 0 -64 -12 -80 -36s-24 -60 -24 -108v-698h-209v719c0 38.667 -9 68.834 -27 90.501s-43.333 32.5 -76 32.5c-37.333 0 -64 -12 -80 -36s-24 -60 -24 -108v-698h-209z" />
    <glyph glyph-name="n" unicode="n" horiz-adv-x="796" 
d="M86 0v1038h209v-100h4c49.333 75.333 115 113 197 113c59.333 0 110 -20.833 152 -62.5s63 -105.5 63 -191.5v-797h-209v719c0 38.667 -9 68.834 -27 90.501s-43.333 32.5 -76 32.5c-37.333 0 -64 -12 -80 -36s-24 -60 -24 -108v-698h-209z" />
    <glyph glyph-name="o" unicode="o" 
d="M68 348v341.998c0 94.667 12.667 165 38 211s61.666 82.5 108.999 109.5s102 40.5 164 40.5s116.5 -13.5 163.5 -40.5s83.167 -63.5 108.5 -109.5c26 -47.333 39 -117.666 39 -210.999v-342c0 -93.333 -13 -163.666 -39 -210.999c-25.333 -46 -61.5 -82.333 -108.5 -109
s-101.5 -40 -163.5 -40s-116.667 13.333 -164 40s-83.666 63 -108.999 109s-38 116.333 -38 211zM276 314.998c0 -38 9.16699 -67.167 27.5 -87.5s43.5 -30.5 75.5 -30.5s57 10 75 30s27 49.333 27 88v408c0 38.667 -9 68.167 -27 88.5s-43 30.5 -75 30.5
s-57.167 -10.167 -75.5 -30.5s-27.5 -49.833 -27.5 -88.5v-408z" />
    <glyph glyph-name="p" unicode="p" horiz-adv-x="796" 
d="M86 -420l-0.00292969 1458h209v-94c23.333 26 41.333 44.833 54 56.5s31.834 23 57.501 34s54.834 16.5 87.501 16.5c85.333 0 146 -33 182 -99c23.333 -42 35 -116.333 35 -223v-395c0 -76.667 -2.16699 -132.5 -6.5 -167.5s-13.166 -63.167 -26.499 -84.5
c-40 -62.667 -102 -94 -186 -94c-82 0 -146.333 35.333 -193 106h-4v-514h-209zM294.997 309c0 -32.667 9.83301 -59.5 29.5 -80.5s44.5 -31.5 74.5 -31.5c68.667 0 103 40.667 103 122v381c0 44 -8.5 78.667 -25.5 104s-42.833 38 -77.5 38c-31.333 0 -56.5 -12 -75.5 -36
s-28.5 -55 -28.5 -93v-404z" />
    <glyph glyph-name="q" unicode="q" horiz-adv-x="796" 
d="M86 334l-0.00292969 395c0 106.667 11.667 181 35 223c36 66 96.667 99 182 99c32.667 0 61.834 -5.5 87.501 -16.5s44.834 -22.333 57.501 -34s30.667 -30.5 54 -56.5v94h209v-1458h-209v514h-4c-46.667 -70.667 -111 -106 -193 -106c-84 0 -146 31.333 -186 94
c-13.333 21.333 -22.166 49.5 -26.499 84.5s-6.5 90.833 -6.5 167.5zM294.997 319c0 -81.333 33.999 -122 101.999 -122c30 0 55 10.5 75 31.5s30 47.833 30 80.5v404c0 38 -9.66699 69 -29 93s-44.666 36 -75.999 36c-68 0 -102 -47.333 -102 -142v-381z" />
    <glyph glyph-name="r" unicode="r" horiz-adv-x="569" 
d="M86 0l-0.000976562 1038h209v-110c48.667 42.667 92.834 73.834 132.501 93.501s87.5 29.5 143.5 29.5v-222c-21.333 8.66699 -42.333 13 -63 13c-24 0 -47.667 -4 -71 -12s-46 -20.333 -68 -37s-39.833 -40.334 -53.5 -71.001s-20.5 -66 -20.5 -106v-616h-209z" />
    <glyph glyph-name="s" unicode="s" horiz-adv-x="720" 
d="M49 301h197.001c10.667 -78 48 -117 112 -117c31.333 0 58.666 10.5 81.999 31.5s35 48.167 35 81.5c0 30 -7.66699 55 -23 75s-42.333 37.333 -81 52l-101 37c-66.667 24.667 -118.5 61.667 -155.5 111s-55.5 108 -55.5 176c0 86.667 30 158.834 90 216.501
s132.667 86.5 218 86.5c84.667 0 154.667 -28.833 210 -86.5s83.666 -129.834 84.999 -216.501h-197c-0.666992 33.333 -11.334 59.333 -32.001 78s-45.667 28 -75 28c-31.333 0 -56.166 -10.333 -74.499 -31s-27.5 -45 -27.5 -73c0 -23.333 5.83301 -43.5 17.5 -60.5
s35.167 -32.5 70.5 -46.5l123 -49c136.667 -52 205 -149.667 205 -293c0 -87.333 -29.667 -161.333 -89 -222s-133.666 -91 -222.999 -91c-86 0 -158.333 27.5 -217 82.5s-90 131.833 -94 230.5z" />
    <glyph glyph-name="t" unicode="t" horiz-adv-x="417" 
d="M-18 874l-0.000976562 164.001h104v316h209v-316h129v-164h-129v-575c0 -44.667 8.83301 -72.834 26.5 -84.501s51.834 -17.5 102.501 -17.5v-197h-86c-44.667 -0 -84 7.33301 -118 22s-60.333 34.334 -79 59.001s-32.5 50.667 -41.5 78s-13.5 55.666 -13.5 84.999v630
h-104z" />
    <glyph glyph-name="u" unicode="u" horiz-adv-x="796" 
d="M86 242v796h209v-719c0 -38.667 8.83301 -68.667 26.5 -90s42.834 -32 75.501 -32c38 0 65 11.833 81 35.5s24 59.5 24 107.5v698h209v-1038h-209v100h-4c-48.667 -74.667 -114.334 -112 -197.001 -112c-59.333 0 -110 20.833 -152 62.5s-63 105.5 -63 191.5z" />
    <glyph glyph-name="v" unicode="v" horiz-adv-x="720" 
d="M-2 1038h221l139 -663h4l140 663h221l-270 -1038h-185z" />
    <glyph glyph-name="w" unicode="w" horiz-adv-x="1097" 
d="M2 1038h221l127 -645h4l117 645h164l110 -645h5l124 645h222l-246 -1038h-184l-115 616h-4l-115 -616h-184z" />
    <glyph glyph-name="x" unicode="x" horiz-adv-x="679" 
d="M-23 0l256 530l-243 508h221l129 -295l129 295h221l-248 -508l260 -530h-221l-141 317l-141 -317h-222z" />
    <glyph glyph-name="y" unicode="y" horiz-adv-x="720" 
d="M-2 1038l221 -0.000976562l143 -647h5l141 647h215l-299 -1218c-38.667 -160 -135 -240 -289 -240h-57v197h47c30 0 53 5.83301 69 17.5s30.833 36.334 44.5 74.001s28.5 97.167 44.5 178.5z" />
    <glyph glyph-name="z" unicode="z" horiz-adv-x="645" 
d="M35 0v166l338 688h-312v184h549v-166l-338 -675h338v-197h-575z" />
    <glyph glyph-name="braceleft" unicode="{" horiz-adv-x="454" 
d="M6 567v123.003c38 0 69.333 21.667 94 65s37 98.333 37 165v311c0 69.333 19.333 124.5 58 165.5s86.334 61.5 143.001 61.5h111v-123h-37c-60 0 -90 -45 -90 -135v-309c0 -81.333 -14.833 -143.833 -44.5 -187.5s-62.167 -68.5 -97.5 -74.5v-4
c16 -2.66699 31.667 -9.33398 47 -20.001s30.333 -25.667 45 -45s26.667 -46.333 36 -81s14 -74.334 14 -119.001v-305c0 -91.333 30 -137 90 -137h37v-123h-111c-56.667 0 -104.334 20.667 -143.001 62s-58 96.666 -58 165.999v309c0 68.667 -12.333 125 -37 169
s-56 66 -94 66z" />
    <glyph glyph-name="bar" unicode="|" horiz-adv-x="454" 
d="M145 -512v2048h164v-2048h-164z" />
    <glyph glyph-name="braceright" unicode="}" horiz-adv-x="454" 
d="M6 -82l36.999 -0.00292969c60 0 90 45.667 90 137v305c0 44.667 4.5 84.167 13.5 118.5s21 61.333 36 81s30 34.834 45 45.501s30.5 17.334 46.5 20.001v4c-35.333 6 -67.666 30.833 -96.999 74.5s-44 106.167 -44 187.5v309c0 90 -30 135 -90 135h-37v123h111
c56.667 0 104.167 -20.5 142.5 -61.5s57.5 -96.167 57.5 -165.5v-311c0 -66.667 12.5 -121.667 37.5 -165s56.5 -65 94.5 -65v-123c-38 0 -69.5 -22.167 -94.5 -66.5s-37.5 -100.5 -37.5 -168.5v-309c0 -69.333 -19.167 -124.666 -57.5 -165.999s-85.833 -62 -142.5 -62
h-111v123z" />
    <glyph glyph-name="asciitilde" unicode="~" horiz-adv-x="1228" 
d="M141 492c62 118.667 147.333 177.999 256 177.999c56.667 0 132.667 -22.667 228 -68l44.5 -20c20.333 -9.33301 36.166 -16.333 47.499 -21l40.5 -16c15.667 -6 29.667 -10.333 42 -13s23.833 -4 34.5 -4c19.333 0 37.666 3.83301 54.999 11.5
s33.833 19.834 49.5 36.501s28.334 31.667 38.001 45s22.167 31.666 37.5 54.999l73 -133c-62 -118.667 -147.333 -178 -256 -178c-57.333 0 -133 22.333 -227 67l-44.5 20c-20.333 9.33301 -36.166 16.333 -47.499 21l-40.5 16c-15.667 6 -29.667 10.333 -42 13
s-23.833 4 -34.5 4c-19.333 0 -37.5 -3.83301 -54.5 -11.5s-33.5 -20 -49.5 -37s-28.667 -31.667 -38 -44s-22 -30.166 -38 -53.499z" />
    <glyph glyph-name="uni00A0" unicode="&#xa0;" horiz-adv-x="380" 
 />
    <glyph glyph-name="exclamdown" unicode="&#xa1;" horiz-adv-x="491" 
d="M115 -420l80 1098h102l80 -1098h-262zM141 829v209h209v-209h-209z" />
    <glyph glyph-name="cent" unicode="&#xa2;" horiz-adv-x="761" 
d="M70 342v352.001c0 93.333 13 163.666 39 210.999c22 40.667 52.5 74 91.5 100s84.167 41.333 135.5 46v153h84v-153c83.333 -6.66699 149.5 -40.5 198.5 -101.5s73.5 -137.833 73.5 -230.5h-209c0 67.333 -21 108.333 -63 123v-645
c36.667 12.667 57.667 47.334 63 104.001h209c0 -86 -25.167 -158.167 -75.5 -216.5s-115.833 -90.5 -196.5 -96.5v-172h-84v172c-50.667 4 -95.667 18.833 -135 44.5s-70 58.5 -92 98.5c-26 47.333 -39 117.666 -39 210.999zM279 291.001c0 -49.333 19 -80.667 57 -94v645
c-18 -6.66699 -32 -20 -42 -40s-15 -43.667 -15 -71v-440z" />
    <glyph glyph-name="sterling" unicode="&#xa3;" horiz-adv-x="761" 
d="M27 610l0.00292969 145.998h112c-28 52 -48 100.5 -60 145.5s-18 100.167 -18 165.5c0 55.333 6.33301 106.666 19 153.999s32 89.833 58 127.5s60.667 67.334 104 89.001s93.666 32.5 150.999 32.5c35.333 0 70.166 -6.66699 104.499 -20s66.666 -32.833 96.999 -58.5
s54.833 -60.667 73.5 -105s28 -94.166 28 -149.499v-93h-196v82c0 42.667 -8.66699 78 -26 106s-46.333 42 -87 42c-45.333 0 -78.166 -19.167 -98.499 -57.5s-30.5 -88.833 -30.5 -151.5c0 -91.333 22 -194.333 66 -309h237v-146h-190
c0.666992 -1.33301 3.16699 -8.16602 7.5 -20.499l8 -23c1 -3 3.16699 -10 6.5 -21s5.5 -19.5 6.5 -25.5l4 -25c1.66699 -10.667 2.83398 -21.167 3.50098 -31.5s1 -21.5 1 -33.5c0 -72 -22 -146.333 -66 -223c9.33301 -1.33301 25.333 -4.16602 48 -8.49902
s44.167 -7.83301 64.5 -10.5s38.833 -4 55.5 -4c27.333 0 51 4.16699 71 12.5s41.333 26.166 64 53.499l139 -141c-31.333 -43.333 -64.833 -74.333 -100.5 -93s-77.834 -28 -126.501 -28c-24.667 0 -80.834 6.5 -168.501 19.5s-147.5 19.5 -179.5 19.5
c-26.667 0 -56.167 -3.66699 -88.5 -11s-56.833 -14.666 -73.5 -21.999v176c12 7.33301 31.667 15.5 59 24.5s51.333 14.5 72 16.5c36.667 53.333 55 112.666 55 177.999c0 67.333 -15.667 141 -47 221h-159z" />
    <glyph glyph-name="currency" unicode="&#xa4;" horiz-adv-x="761" 
d="M8 438l86 85.998c-22 22.667 -39.333 52.334 -52 89.001s-19 75.334 -19 116.001c0 86.667 23 155 69 205l-84 86l84 84l84 -86c52.667 46 121 69 205 69c85.333 0 154.333 -23 207 -69l84 86l82 -84l-84 -84c46 -52.667 69 -121.667 69 -207
c0 -86 -23 -154.333 -69 -205l84 -84l-84 -84l-84 84c-50 -46 -118.333 -69 -205 -69c-84.667 0 -153 23.667 -205 71l-84 -86zM158 728.998c0 -61.333 21.833 -113.833 65.5 -157.5s96.167 -65.5 157.5 -65.5s113.833 21.833 157.5 65.5s65.5 96.167 65.5 157.5
s-21.833 113.833 -65.5 157.5s-96.167 65.5 -157.5 65.5s-113.833 -21.833 -157.5 -65.5s-65.5 -96.167 -65.5 -157.5z" />
    <glyph glyph-name="yen" unicode="&#xa5;" horiz-adv-x="761" 
d="M8 1458h209l162 -579h4l162 579h209l-242 -735h201v-135h-234v-101h234v-135h-234v-352h-196v352h-234v135h234v101h-234v135h201z" />
    <glyph glyph-name="brokenbar" unicode="&#xa6;" horiz-adv-x="454" 
d="M145 -358v716h164v-716h-164zM145 666v716h164v-716h-164z" />
    <glyph glyph-name="section" unicode="&#xa7;" 
d="M68 530c0 118 12.334 200.168 37.001 246.501s75 81.166 151 104.499c-33.333 16.667 -59.833 33.334 -79.5 50.001s-34.5 36.667 -44.5 60s-16.333 46.5 -19 69.5s-4 54.5 -4 94.5c0 102.667 26.5 180.834 79.5 234.501s119.833 80.5 200.5 80.5
c74 0 138.667 -24.667 194 -74s83 -118 83 -206v-94h-174v86c0 34 -9.16699 63.333 -27.5 88s-43.5 37 -75.5 37c-40 0 -67.667 -13.333 -83 -40s-23 -63.334 -23 -110.001c0 -50 5 -84.167 15 -102.5s37 -41.5 81 -69.5l199 -129c48.667 -31.333 79.5 -66.5 92.5 -105.5
s19.5 -112.5 19.5 -220.5c0 -44.667 -1 -79.5 -3 -104.5s-6 -49.833 -12 -74.5s-15.667 -44.667 -29 -60s-30.5 -30.333 -51.5 -45s-48.5 -29.667 -82.5 -45c66.667 -34 109 -69.167 127 -105.5s27 -97.5 27 -183.5c0 -58.667 -3.66699 -105.167 -11 -139.5
s-21 -65.833 -41 -94.5c-23.333 -33.333 -56.333 -60 -99 -80s-87.334 -30 -134.001 -30c-52.667 0 -99 9.5 -139 28.5s-70.667 43.667 -92 74s-37 61.5 -47 93.5s-15 64.333 -15 97v86h174v-84c0 -36.667 10.667 -67.667 32 -93s48.333 -38 81 -38
c41.333 0 71.166 12.667 89.499 38s27.5 65.666 27.5 120.999c0 50 -4.16699 85 -12.5 105s-26.166 38.333 -53.499 55l-242 148c-51.333 31.333 -83.5 68.5 -96.5 111.5s-19.5 116.167 -19.5 219.5zM276.001 436.001c0 -29.333 10 -54.666 30 -75.999s44.333 -32 73 -32
c27.333 0 51.166 10.667 71.499 32s30.5 46.666 30.5 75.999v203c0 29.333 -10.167 54.833 -30.5 76.5s-44.166 32.5 -71.499 32.5c-28.667 0 -53 -10.833 -73 -32.5s-30 -47.167 -30 -76.5v-203z" />
    <glyph glyph-name="dieresis" unicode="&#xa8;" horiz-adv-x="380" 
d="M-68 1200v209h185v-209h-185zM264 1200v209h185v-209h-185z" />
    <glyph glyph-name="copyright" unicode="&#xa9;" horiz-adv-x="1638" 
d="M78 729c0 100.667 19.5 196.834 58.5 288.501s91.5 170.5 157.5 236.5s144.833 118.5 236.5 157.5s187.834 58.5 288.501 58.5c134.667 0 258.834 -33 372.501 -99s203.667 -155.833 270 -269.5s99.5 -237.834 99.5 -372.501s-33.167 -258.834 -99.5 -372.501
s-156.333 -203.5 -270 -269.5s-237.834 -99 -372.501 -99c-100.667 0 -196.834 19.5 -288.501 58.5s-170.5 91.5 -236.5 157.5s-118.5 144.833 -157.5 236.5s-58.5 187.834 -58.5 288.501zM225 729c0 -82 15.667 -160.333 47 -235s73.5 -139.167 126.5 -193.5
s116.167 -97.5 189.5 -129.5s150.333 -48 231 -48s157.667 16 231 48s136.5 75.167 189.5 129.5s95.167 118.833 126.5 193.5s47 153 47 235s-15.667 160.333 -47 235s-73.5 139.167 -126.5 193.5s-116.167 97.5 -189.5 129.5s-150.333 48 -231 48s-157.667 -16 -231 -48
s-136.5 -75.167 -189.5 -129.5s-95.167 -118.833 -126.5 -193.5s-47 -153 -47 -235zM408 729c0 136 38.834 247.171 116.501 333.504s182.834 129.5 315.501 129.5c96 0 178 -27.333 246 -82s108.667 -130.334 122 -227.001h-135c-12 49.333 -39.167 90.666 -81.5 123.999
s-92.166 50 -149.499 50c-88 0 -157.833 -30.833 -209.5 -92.5s-77.5 -138.834 -77.5 -231.501c0 -57.333 11.833 -110.833 35.5 -160.5s58 -90.334 103 -122.001s95.833 -47.5 152.5 -47.5c57.333 0 107.166 17.833 149.499 53.5s68.166 79.5 77.499 131.5h135
c-18.667 -96 -61.167 -173.333 -127.5 -232s-144.5 -88 -234.5 -88c-130.667 0 -236.334 44 -317.001 132s-121 197.667 -121 329z" />
    <glyph glyph-name="ordfeminine" unicode="&#xaa;" horiz-adv-x="491" 
d="M29 999c0 74.667 16.333 129.665 49 164.998s90 53 172 53c6.66699 0 17.5 -0.666992 32.5 -2s25.833 -2.33301 32.5 -3v50c0 48.667 -22.333 73 -67 73c-19.333 0 -36.166 -5 -50.499 -15s-22.833 -25.333 -25.5 -46h-135c4 60.667 24.667 108.5 62 143.5
s87 52.5 149 52.5c60 0 110.833 -17.333 152.5 -52s62.5 -82.667 62.5 -144v-434h-148v63h-4c-20 -25.333 -38.833 -43.666 -56.5 -54.999s-41.834 -17 -72.501 -17c-18 0 -35 2.33301 -51 7s-32.167 12.667 -48.5 24s-29.333 28.833 -39 52.5s-14.5 51.834 -14.5 84.501z
M176 1022c0 -39.333 22 -59 66 -59c22 0 39.667 6.5 53 19.5s20 29.5 20 49.5v76c-18.667 2.66699 -30.667 4 -36 4c-68.667 0 -103 -30 -103 -90z" />
    <glyph glyph-name="guillemotleft" unicode="&#xab;" horiz-adv-x="872" 
d="M20 567l416 414v-209l-207 -205l207 -205v-208zM399 567l416 414v-209l-207 -205l207 -205v-208z" />
    <glyph glyph-name="logicalnot" unicode="&#xac;" horiz-adv-x="1228" 
d="M96 641v164h1037v-574h-164v410h-873z" />
    <glyph glyph-name="uni00AD" unicode="&#xad;" horiz-adv-x="796" 
d="M90 463v209h617v-209h-617z" />
    <glyph glyph-name="registered" unicode="&#xae;" horiz-adv-x="1638" 
d="M78 729c0 100.667 19.5 196.834 58.5 288.501s91.5 170.5 157.5 236.5s144.833 118.5 236.5 157.5s187.834 58.5 288.501 58.5c134.667 0 258.834 -33 372.501 -99s203.667 -155.833 270 -269.5s99.5 -237.834 99.5 -372.501s-33.167 -258.834 -99.5 -372.501
s-156.333 -203.5 -270 -269.5s-237.834 -99 -372.501 -99c-100.667 0 -196.834 19.5 -288.501 58.5s-170.5 91.5 -236.5 157.5s-118.5 144.833 -157.5 236.5s-58.5 187.834 -58.5 288.501zM225 729c0 -82 15.667 -160.333 47 -235s73.5 -139.167 126.5 -193.5
s116.167 -97.5 189.5 -129.5s150.333 -48 231 -48s157.667 16 231 48s136.5 75.167 189.5 129.5s95.167 118.833 126.5 193.5s47 153 47 235s-15.667 160.333 -47 235s-73.5 139.167 -126.5 193.5s-116.167 97.5 -189.5 129.5s-150.333 48 -231 48s-157.667 -16 -231 -48
s-136.5 -75.167 -189.5 -129.5s-95.167 -118.833 -126.5 -193.5s-47 -153 -47 -235zM539 297v864h327c198 0 297 -81 297 -243c0 -76 -20.167 -133.333 -60.5 -172s-93.833 -62 -160.5 -70l248 -379h-164l-248 375h-104v-375h-135zM674 795h153
c68 0 118.5 10.167 151.5 30.5s49.5 53.166 49.5 98.499c0 38.667 -14.167 67.334 -42.5 86.001s-66.833 28 -115.5 28h-196v-243z" />
    <glyph glyph-name="macron" unicode="&#xaf;" horiz-adv-x="380" 
d="M-90 1243v123h561v-123h-561z" />
    <glyph glyph-name="degree" unicode="&#xb0;" horiz-adv-x="532" 
d="M37 1241c0 63.333 22.333 117.333 67 162s98.667 67 162 67s117.5 -22.333 162.5 -67s67.5 -98.667 67.5 -162s-22.5 -117.333 -67.5 -162s-99.167 -67 -162.5 -67s-117.333 22.333 -162 67s-67 98.667 -67 162zM141 1241c0 -35.333 12.167 -65 36.5 -89
s53.833 -36 88.5 -36s64.167 12 88.5 36s36.5 53.667 36.5 89s-12.167 65 -36.5 89s-53.833 36 -88.5 36s-64.167 -12 -88.5 -36s-36.5 -53.667 -36.5 -89z" />
    <glyph glyph-name="plusminus" unicode="&#xb1;" horiz-adv-x="1228" 
d="M96 0v164h1037v-164h-1037zM96 543v164h436v329h164v-329h437v-164h-437v-330h-164v330h-436z" />
    <glyph glyph-name="uni00B2" unicode="&#xb2;" horiz-adv-x="495" 
d="M23 588v109.999l262 435c16 28.667 24 55 24 79v48c0 19.333 -6.5 34.666 -19.5 45.999s-27.5 17 -43.5 17c-16.667 0 -30.834 -5.66699 -42.501 -17s-17.5 -26.666 -17.5 -45.999v-64h-163v74c0 57.333 21.5 105 64.5 143s96.5 57 160.5 57
c62.667 0 115.834 -17.667 159.501 -53s65.5 -79.666 65.5 -132.999v-67c0 -33.333 -3.66699 -60.5 -11 -81.5s-19.333 -45.167 -36 -72.5l-195 -328h242v-147h-450z" />
    <glyph glyph-name="uni00B3" unicode="&#xb3;" horiz-adv-x="495" 
d="M23 772v70h163v-47c0 -20.667 5.66699 -37.167 17 -49.5s26.333 -18.5 45 -18.5c17.333 0 31.833 6.16699 43.5 18.5s17.5 26.5 17.5 42.5v107c0 30.667 -6.83301 51 -20.5 61s-41.5 15 -83.5 15v135c40.667 0 68 4.66699 82 14s21.333 28 22 56v86
c0 18 -5.66699 32.667 -17 44s-26 17 -44 17c-19.333 0 -34.5 -6.5 -45.5 -19.5s-16.5 -26.833 -16.5 -41.5v-54h-163v66c0 57.333 21.333 104.333 64 141s97.667 55 165 55c71.333 0 126 -20.167 164 -60.5s57 -88.166 57 -143.499v-84c0 -33.333 -5.5 -60.833 -16.5 -82.5
s-33.5 -41.5 -67.5 -59.5c32 -18.667 54 -39.334 66 -62.001s18 -51.667 18 -87v-105c0 -56 -18.833 -104.333 -56.5 -145s-93.834 -61 -168.501 -61c-63.333 0 -116.666 15.5 -159.999 46.5s-65 79.5 -65 145.5z" />
    <glyph glyph-name="acute" unicode="&#xb4;" horiz-adv-x="380" 
d="M57 1176l185 288h221l-270 -288h-136z" />
    <glyph glyph-name="uni00B5" unicode="&#xb5;" horiz-adv-x="796" 
d="M86 -420l-0.000976562 1458h209v-719c0 -38.667 8.83301 -68.667 26.5 -90s42.834 -32 75.501 -32c38 0 65 11.833 81 35.5s24 59.5 24 107.5v698h209v-1038h-209v100h-4c-34.667 -74.667 -80 -112 -136 -112c-28.667 0 -49.667 6.66699 -63 20h-4v-428h-209z" />
    <glyph glyph-name="paragraph" unicode="&#xb6;" horiz-adv-x="909" 
d="M16 1065c0 129.333 40.167 227.167 120.5 293.5s189.166 99.5 326.499 99.5h352v-1878h-147v1774h-148v-1774h-147v1104c-91.333 0 -173.666 37.5 -246.999 112.5s-110 164.5 -110 268.5z" />
    <glyph glyph-name="periodcentered" unicode="&#xb7;" horiz-adv-x="380" 
d="M59 610c0 36 12.833 66.833 38.5 92.5s56.5 38.5 92.5 38.5s67 -12.833 93 -38.5s39 -56.5 39 -92.5s-13 -66.833 -39 -92.5s-57 -38.5 -93 -38.5s-66.833 12.833 -92.5 38.5s-38.5 56.5 -38.5 92.5z" />
    <glyph glyph-name="cedilla" unicode="&#xb8;" horiz-adv-x="380" 
d="M-31 -420l35.0049 86c55.333 -20.667 99.666 -31 132.999 -31c29.333 0 55.166 6.16699 77.499 18.5s33.5 34.166 33.5 65.499c0 22.667 -9.16699 41.334 -27.5 56.001s-39.833 22 -64.5 22c-28 0 -54.667 -4.66699 -80 -14l-35 41l133 176h94l-94 -123
c26.667 2.66699 48 4 64 4c61.333 0 105.666 -15.5 132.999 -46.5s41 -66.5 41 -106.5c0 -42 -13.5 -77.667 -40.5 -107s-58.833 -50 -95.5 -62s-75.334 -18 -116.001 -18c-54.667 0 -118.334 13 -191.001 39z" />
    <glyph glyph-name="uni00B9" unicode="&#xb9;" horiz-adv-x="495" 
d="M55 1223v147l135 88h164v-870h-164v723z" />
    <glyph glyph-name="ordmasculine" unicode="&#xba;" horiz-adv-x="491" 
d="M37 1034v234c0 59.333 19.167 107.833 57.5 145.5s88.833 56.5 151.5 56.5s113.167 -18.833 151.5 -56.5s57.5 -86.167 57.5 -145.5v-234c0 -59.333 -19.167 -108 -57.5 -146s-88.833 -57 -151.5 -57s-113.167 19 -151.5 57s-57.5 86.667 -57.5 146zM184 1036
c0 -46 20.667 -69 62 -69c40.667 0 61 23 61 69v228c0 47.333 -20.333 71 -61 71c-41.333 0 -62 -23.667 -62 -71v-228z" />
    <glyph glyph-name="guillemotright" unicode="&#xbb;" horiz-adv-x="872" 
d="M57 154v208l207 205l-207 205v209l416 -414zM436 154v208l207 205l-207 205v209l416 -414z" />
    <glyph glyph-name="onequarter" unicode="&#xbc;" horiz-adv-x="1136" 
d="M23 1223v147l135 88h164v-870h-164v723zM37 -35l895 1528h123l-895 -1528h-123zM596 127v127l201 620h164l-193 -612h121v236h164v-236h61v-135h-61v-127h-164v127h-293z" />
    <glyph glyph-name="onehalf" unicode="&#xbd;" horiz-adv-x="1136" 
d="M23 1223v147l135 88h164v-870h-164v723zM37 -35l895 1528h123l-895 -1528h-123zM659 0l-0.000976562 111.001l267 434c16 28.667 24 55.334 24 80.001v47c0 19.333 -6.5 34.666 -19.5 45.999s-27.5 17 -43.5 17c-18 0 -33.167 -5.5 -45.5 -16.5s-18.5 -26.5 -18.5 -46.5
v-64h-164v74c0 57.333 22 105.166 66 143.499s98.667 57.5 164 57.5c62.667 0 115.834 -17.667 159.501 -53s65.5 -80 65.5 -134v-67c0 -33.333 -3.66699 -60.5 -11 -81.5s-19.333 -45.167 -36 -72.5l-195 -328h242v-147h-455z" />
    <glyph glyph-name="threequarters" unicode="&#xbe;" horiz-adv-x="1136" 
d="M23 772v70h163v-47c0 -20.667 5.66699 -37.167 17 -49.5s26.333 -18.5 45 -18.5c17.333 0 31.833 6.16699 43.5 18.5s17.5 26.5 17.5 42.5v107c0 30.667 -6.83301 51 -20.5 61s-41.5 15 -83.5 15v135c40.667 0 68 4.66699 82 14s21.333 28 22 56v86
c0 18 -5.66699 32.667 -17 44s-26 17 -44 17c-19.333 0 -34.5 -6.5 -45.5 -19.5s-16.5 -26.833 -16.5 -41.5v-54h-163v66c0 57.333 21.333 104.333 64 141s97.667 55 165 55c71.333 0 126 -20.167 164 -60.5s57 -88.166 57 -143.499v-84c0 -33.333 -5.5 -60.833 -16.5 -82.5
s-33.5 -41.5 -67.5 -59.5c32 -18.667 54 -39.334 66 -62.001s18 -51.667 18 -87v-105c0 -56 -18.833 -104.333 -56.5 -145s-93.834 -61 -168.501 -61c-63.333 0 -116.666 15.5 -159.999 46.5s-65 79.5 -65 145.5zM76 -35l895 1528h123l-895 -1528h-123zM596 127v127l201 620
h164l-193 -612h121v236h164v-236h61v-135h-61v-127h-164v127h-293z" />
    <glyph glyph-name="questiondown" unicode="&#xbf;" 
d="M66 -66c0 71.333 1.99805 122.668 5.99805 154.001s12.667 58 26 80l142 242c22.667 41.333 34 76 34 104v164h209v-191c0 -54 -17 -109 -51 -165l-131 -213c-18 -31.333 -27 -71 -27 -119v-109c0 -28.667 10 -53.167 30 -73.5s44.333 -30.5 73 -30.5
c27.333 0 51.833 9.33301 73.5 28s32.5 44 32.5 76v119h209v-121c0 -86 -30.667 -159.333 -92 -220s-135.666 -91 -222.999 -91c-50 0 -96 10.167 -138 30.5s-76.667 49.166 -104 86.499s-45.666 72.5 -54.999 105.5s-14 80.833 -14 143.5zM273.998 829.002v209h209v-209
h-209z" />
    <glyph glyph-name="Agrave" unicode="&#xc0;" horiz-adv-x="833" 
d="M4 0l326 1458h174l325 -1458h-208l-62 313h-285l-61 -313h-209zM145 1812h222l184 -288h-135zM311 510h209l-102 528h-4z" />
    <glyph glyph-name="Aacute" unicode="&#xc1;" horiz-adv-x="833" 
d="M4 0l326 1458h174l325 -1458h-208l-62 313h-285l-61 -313h-209zM285 1524l184 288h221l-270 -288h-135zM311 510h209l-102 528h-4z" />
    <glyph glyph-name="Acircumflex" unicode="&#xc2;" horiz-adv-x="833" 
d="M4 0l326 1458h174l325 -1458h-208l-62 313h-285l-61 -313h-209zM121 1524l201 288h192l201 -288h-160l-137 194l-137 -194h-160zM311 510h209l-102 528h-4z" />
    <glyph glyph-name="Atilde" unicode="&#xc3;" horiz-adv-x="833" 
d="M4 0l326 1458h174l325 -1458h-208l-62 313h-285l-61 -313h-209zM70 1542c14 70.667 36.6689 126.168 68.002 166.501s77.333 60.5 138 60.5c22.667 0 74.167 -13.5 154.5 -40.5s127.166 -40.5 140.499 -40.5c28 0 49.833 8.5 65.5 25.5s24.167 39.167 25.5 66.5h104
c-14 -70.667 -36.833 -126.334 -68.5 -167.001s-77.834 -61 -138.501 -61c-22 0 -73 13.667 -153 41s-127.333 41 -142 41c-27.333 0 -48.833 -8.5 -64.5 -25.5s-24.167 -39.167 -25.5 -66.5h-104zM311.002 510.001h209l-102 528h-4z" />
    <glyph glyph-name="Adieresis" unicode="&#xc4;" horiz-adv-x="833" 
d="M4 0l326 1458h174l325 -1458h-208l-62 313h-285l-61 -313h-209zM160 1548v209h184v-209h-184zM311 510h209l-102 528h-4zM492 1548v209h184v-209h-184z" />
    <glyph glyph-name="Aring" unicode="&#xc5;" horiz-adv-x="833" 
d="M4 0l326 1458h174l325 -1458h-208l-62 313h-285l-61 -313h-209zM209 1710c0 57.333 20.5 106.5 61.5 147.5s90.167 61.5 147.5 61.5s106.5 -20.667 147.5 -62s61.5 -90.333 61.5 -147c0 -57.333 -20.5 -106.5 -61.5 -147.5s-90.167 -61.5 -147.5 -61.5
s-106.5 20.667 -147.5 62s-61.5 90.333 -61.5 147zM293 1710c0 -34.667 12.167 -64.167 36.5 -88.5s53.833 -36.5 88.5 -36.5s64.167 12.167 88.5 36.5s36.5 53.833 36.5 88.5s-12.167 64.167 -36.5 88.5s-53.833 36.5 -88.5 36.5s-64.167 -12.167 -88.5 -36.5
s-36.5 -53.833 -36.5 -88.5zM311 510h209l-102 528h-4z" />
    <glyph glyph-name="AE" unicode="&#xc6;" horiz-adv-x="1251" 
d="M4 0l414 1458h796v-196h-413v-428h360v-197h-360v-428h413v-209h-622v313h-287l-80 -313h-221zM354 510h238v752h-49z" />
    <glyph glyph-name="Ccedilla" unicode="&#xc7;" horiz-adv-x="833" 
d="M86 332l0.00390625 803.001c0 96 31.667 175.833 95 239.5s145 95.5 245 95.5c96.667 0 176.834 -32.667 240.501 -98s95.5 -148.666 95.5 -249.999v-82h-209v70c0 42.667 -11.833 78.667 -35.5 108s-54.834 44 -93.501 44c-48.667 0 -82.334 -14.667 -101.001 -44
s-28 -71.333 -28 -126v-746c0 -99.333 42.333 -149 127 -149c34.667 0 65.167 11.5 91.5 34.5s39.5 60.5 39.5 112.5v72h209v-90c0 -80 -25.833 -151.833 -77.5 -215.5s-116.834 -103.167 -195.501 -118.5l-88 -115c26.667 2.66699 48 4 64 4
c61.333 0 105.666 -15.5 132.999 -46.5s41 -66.5 41 -106.5c0 -42 -13.5 -77.667 -40.5 -107s-58.833 -50 -95.5 -62s-75.334 -18 -116.001 -18c-54 0 -117.333 13 -190 39l34 86c55.333 -20.667 100 -31 134 -31c29.333 0 55 6.16699 77 18.5s33 34.166 33 65.499
c0 22.667 -9.16699 41.334 -27.5 56.001s-39.833 22 -64.5 22c-28 0 -54.667 -4.66699 -80 -14l-35 41l125 164c-31.333 2.66699 -61.166 8.16699 -89.499 16.5s-56 21.333 -83 39s-50.333 39.167 -70 64.5s-35.334 57.166 -47.001 95.499s-17.5 81.166 -17.5 128.499z" />
    <glyph glyph-name="Egrave" unicode="&#xc8;" 
d="M98 0v1458h623v-196h-414v-428h361v-197h-361v-428h414v-209h-623zM127 1812h221l184 -288h-135z" />
    <glyph glyph-name="Eacute" unicode="&#xc9;" 
d="M98 0v1458h623v-196h-414v-428h361v-197h-361v-428h414v-209h-623zM266 1524l185 288h221l-271 -288h-135z" />
    <glyph glyph-name="Ecircumflex" unicode="&#xca;" 
d="M98 0v1458h623v-196h-414v-428h361v-197h-361v-428h414v-209h-623zM102 1524l201 288h193l200 -288h-159l-138 194l-137 -194h-160z" />
    <glyph glyph-name="Edieresis" unicode="&#xcb;" 
d="M98 0v1458h623v-196h-414v-428h361v-197h-361v-428h414v-209h-623zM141 1548v209h185v-209h-185zM473 1548v209h184v-209h-184z" />
    <glyph glyph-name="Igrave" unicode="&#xcc;" horiz-adv-x="417" 
d="M-63 1812h221l184 -288h-135zM104 0v1458h209v-1458h-209z" />
    <glyph glyph-name="Iacute" unicode="&#xcd;" horiz-adv-x="417" 
d="M76 1524l184 288h221l-270 -288h-135zM104 0v1458h209v-1458h-209z" />
    <glyph glyph-name="Icircumflex" unicode="&#xce;" horiz-adv-x="417" 
d="M-88 1524l201 288h192l201 -288h-160l-137 194l-137 -194h-160zM104 0v1458h209v-1458h-209z" />
    <glyph glyph-name="Idieresis" unicode="&#xcf;" horiz-adv-x="417" 
d="M-49 1548v209h184v-209h-184zM104 0v1458h209v-1458h-209zM283 1548v209h184v-209h-184z" />
    <glyph glyph-name="Eth" unicode="&#xd0;" horiz-adv-x="872" 
d="M0 717l0.000976562 134.999h98v606h310c117.333 0 207.666 -33.167 270.999 -99.5s95 -158.833 95 -277.5v-682c0 -133.333 -33 -233.166 -99 -299.499s-161.333 -99.5 -286 -99.5h-291v717h-98zM307.001 196.999h95.999c58 0 99.5 14.5 124.5 43.5
s37.5 75.167 37.5 138.5v702c0 60.667 -12.167 106 -36.5 136s-66.166 45 -125.499 45h-96v-410h144v-135h-144v-520z" />
    <glyph glyph-name="Ntilde" unicode="&#xd1;" horiz-adv-x="909" 
d="M90 0v1458h201l315 -878h4v878h209v-1458h-196l-320 877h-4v-877h-209zM106 1542c14 70.667 36.834 126.168 68.501 166.501s77.834 60.5 138.501 60.5c22.667 0 74.167 -13.5 154.5 -40.5s127.166 -40.5 140.499 -40.5c27.333 0 48.833 8.5 64.5 25.5
s24.167 39.167 25.5 66.5h105c-14 -70.667 -36.833 -126.334 -68.5 -167.001s-77.834 -61 -138.501 -61c-22.667 0 -74 13.667 -154 41s-127 41 -141 41c-27.333 0 -48.833 -8.5 -64.5 -25.5s-24.167 -39.167 -25.5 -66.5h-105z" />
    <glyph glyph-name="Ograve" unicode="&#xd2;" horiz-adv-x="872" 
d="M86 344v770c0 57.333 10.167 109.166 30.5 155.499s47.333 83.833 81 112.5s71 50.5 112 65.5s83.167 22.5 126.5 22.5s85.5 -7.5 126.5 -22.5s78.333 -36.833 112 -65.5s60.667 -66.167 81 -112.5s30.5 -98.166 30.5 -155.499v-770
c0 -57.333 -10.167 -109.166 -30.5 -155.499s-47.333 -83.833 -81 -112.5s-71 -50.5 -112 -65.5s-83.167 -22.5 -126.5 -22.5s-85.5 7.5 -126.5 22.5s-78.333 36.833 -112 65.5s-60.667 66.167 -81 112.5s-30.5 98.166 -30.5 155.499zM164 1812h221l184 -288h-135zM295 344
c0 -47.333 13.333 -83.666 40 -108.999s60.334 -38 101.001 -38s74.5 12.667 101.5 38s40.5 61.666 40.5 108.999v770c0 47.333 -13.5 83.833 -40.5 109.5s-60.833 38.5 -101.5 38.5s-74.334 -12.667 -101.001 -38s-40 -62 -40 -110v-770z" />
    <glyph glyph-name="Oacute" unicode="&#xd3;" horiz-adv-x="872" 
d="M86 344v770c0 57.333 10.167 109.166 30.5 155.499s47.333 83.833 81 112.5s71 50.5 112 65.5s83.167 22.5 126.5 22.5s85.5 -7.5 126.5 -22.5s78.333 -36.833 112 -65.5s60.667 -66.167 81 -112.5s30.5 -98.166 30.5 -155.499v-770
c0 -57.333 -10.167 -109.166 -30.5 -155.499s-47.333 -83.833 -81 -112.5s-71 -50.5 -112 -65.5s-83.167 -22.5 -126.5 -22.5s-85.5 7.5 -126.5 22.5s-78.333 36.833 -112 65.5s-60.667 66.167 -81 112.5s-30.5 98.166 -30.5 155.499zM295 344
c0 -47.333 13.333 -83.666 40 -108.999s60.334 -38 101.001 -38s74.5 12.667 101.5 38s40.5 61.666 40.5 108.999v770c0 47.333 -13.5 83.833 -40.5 109.5s-60.833 38.5 -101.5 38.5s-74.334 -12.667 -101.001 -38s-40 -62 -40 -110v-770zM303 1524l184 288h222l-271 -288
h-135z" />
    <glyph glyph-name="Ocircumflex" unicode="&#xd4;" horiz-adv-x="872" 
d="M86 344v770c0 57.333 10.167 109.166 30.5 155.499s47.333 83.833 81 112.5s71 50.5 112 65.5s83.167 22.5 126.5 22.5s85.5 -7.5 126.5 -22.5s78.333 -36.833 112 -65.5s60.667 -66.167 81 -112.5s30.5 -98.166 30.5 -155.499v-770
c0 -57.333 -10.167 -109.166 -30.5 -155.499s-47.333 -83.833 -81 -112.5s-71 -50.5 -112 -65.5s-83.167 -22.5 -126.5 -22.5s-85.5 7.5 -126.5 22.5s-78.333 36.833 -112 65.5s-60.667 66.167 -81 112.5s-30.5 98.166 -30.5 155.499zM139 1524l201 288h192l201 -288h-160
l-137 194l-137 -194h-160zM295 344c0 -47.333 13.333 -83.666 40 -108.999s60.334 -38 101.001 -38s74.5 12.667 101.5 38s40.5 61.666 40.5 108.999v770c0 47.333 -13.5 83.833 -40.5 109.5s-60.833 38.5 -101.5 38.5s-74.334 -12.667 -101.001 -38s-40 -62 -40 -110v-770z
" />
    <glyph glyph-name="Otilde" unicode="&#xd5;" horiz-adv-x="872" 
d="M86 344v770c0 57.333 10.167 109.166 30.5 155.499s47.333 83.833 81 112.5s71 50.5 112 65.5s83.167 22.5 126.5 22.5s85.5 -7.5 126.5 -22.5s78.333 -36.833 112 -65.5s60.667 -66.167 81 -112.5s30.5 -98.166 30.5 -155.499v-770
c0 -57.333 -10.167 -109.166 -30.5 -155.499s-47.333 -83.833 -81 -112.5s-71 -50.5 -112 -65.5s-83.167 -22.5 -126.5 -22.5s-85.5 7.5 -126.5 22.5s-78.333 36.833 -112 65.5s-60.667 66.167 -81 112.5s-30.5 98.166 -30.5 155.499zM88 1542
c14 70.667 36.834 126.167 68.501 166.5s77.834 60.5 138.501 60.5c22.667 0 74.167 -13.5 154.5 -40.5s127.166 -40.5 140.499 -40.5c27.333 0 48.833 8.5 64.5 25.5s24.167 39.167 25.5 66.5h104c-6.66699 -34 -14.834 -63.667 -24.501 -89s-22.334 -49 -38.001 -71
s-35.667 -38.833 -60 -50.5s-52.166 -17.5 -83.499 -17.5c-22.667 0 -74 13.667 -154 41s-127 41 -141 41c-27.333 0 -48.833 -8.5 -64.5 -25.5s-24.167 -39.167 -25.5 -66.5h-105zM295.001 344c0 -47.333 13.333 -83.666 40 -108.999s60.334 -38 101.001 -38
s74.5 12.667 101.5 38s40.5 61.666 40.5 108.999v770c0 47.333 -13.5 83.833 -40.5 109.5s-60.833 38.5 -101.5 38.5s-74.334 -12.667 -101.001 -38s-40 -62 -40 -110v-770z" />
    <glyph glyph-name="Odieresis" unicode="&#xd6;" horiz-adv-x="872" 
d="M86 344v770c0 57.333 10.167 109.166 30.5 155.499s47.333 83.833 81 112.5s71 50.5 112 65.5s83.167 22.5 126.5 22.5s85.5 -7.5 126.5 -22.5s78.333 -36.833 112 -65.5s60.667 -66.167 81 -112.5s30.5 -98.166 30.5 -155.499v-770
c0 -57.333 -10.167 -109.166 -30.5 -155.499s-47.333 -83.833 -81 -112.5s-71 -50.5 -112 -65.5s-83.167 -22.5 -126.5 -22.5s-85.5 7.5 -126.5 22.5s-78.333 36.833 -112 65.5s-60.667 66.167 -81 112.5s-30.5 98.166 -30.5 155.499zM178 1548v209h184v-209h-184zM295 344
c0 -47.333 13.333 -83.666 40 -108.999s60.334 -38 101.001 -38s74.5 12.667 101.5 38s40.5 61.666 40.5 108.999v770c0 47.333 -13.5 83.833 -40.5 109.5s-60.833 38.5 -101.5 38.5s-74.334 -12.667 -101.001 -38s-40 -62 -40 -110v-770zM510 1548v209h184v-209h-184z" />
    <glyph glyph-name="multiply" unicode="&#xd7;" horiz-adv-x="1228" 
d="M137 158l363 360l-363 363l117 114l360 -360l363 360l115 -114l-361 -363l361 -360l-115 -117l-363 362l-360 -362z" />
    <glyph glyph-name="Oslash" unicode="&#xd8;" horiz-adv-x="872" 
d="M20 -33l103 211c-24.667 46.667 -37 102 -37 166v770c0 57.333 10.167 109.166 30.5 155.499s47.333 83.833 81 112.5s71 50.5 112 65.5s83.167 22.5 126.5 22.5c102 0 187.333 -35.333 256 -106l82 172l78 -45l-102 -211c24 -44.667 36 -100 36 -166v-770
c0 -57.333 -10.167 -109.166 -30.5 -155.499s-47.333 -83.833 -81 -112.5s-71 -50.5 -112 -65.5s-83.167 -22.5 -126.5 -22.5c-48.667 0 -95.5 9 -140.5 27s-83.5 44.333 -115.5 79l-82 -172zM295 334c2 -44 16.168 -77.832 42.501 -101.499s59.166 -35.5 98.499 -35.5
c40.667 0 74.5 12.667 101.5 38s40.5 61.666 40.5 108.999v576h-5zM295.001 537.001l4.00293 -0.000976562l279 587c-2.66699 44.667 -17.334 78.834 -44.001 102.501s-59.334 35.5 -98.001 35.5c-40.667 0 -74.334 -12.667 -101.001 -38s-40 -62 -40 -110v-577z" />
    <glyph glyph-name="Ugrave" unicode="&#xd9;" horiz-adv-x="872" 
d="M98 328l-0.00195312 1130h209v-1110c0 -49.333 11.833 -86.833 35.5 -112.5s54.834 -38.5 93.501 -38.5s69.834 12.833 93.501 38.5s35.5 63.167 35.5 112.5v1110h209v-1130c0 -94.667 -33 -175 -99 -241s-145.667 -99 -239 -99s-173 33 -239 99s-99 146.333 -99 241z
M163.998 1812h221l184 -288h-135z" />
    <glyph glyph-name="Uacute" unicode="&#xda;" horiz-adv-x="872" 
d="M98 328l-0.00195312 1130h209v-1110c0 -49.333 11.833 -86.833 35.5 -112.5s54.834 -38.5 93.501 -38.5s69.834 12.833 93.501 38.5s35.5 63.167 35.5 112.5v1110h209v-1130c0 -94.667 -33 -175 -99 -241s-145.667 -99 -239 -99s-173 33 -239 99s-99 146.333 -99 241z
M302.998 1524l184 288h222l-271 -288h-135z" />
    <glyph glyph-name="Ucircumflex" unicode="&#xdb;" horiz-adv-x="872" 
d="M98 328l-0.00195312 1130h209v-1110c0 -49.333 11.833 -86.833 35.5 -112.5s54.834 -38.5 93.501 -38.5s69.834 12.833 93.501 38.5s35.5 63.167 35.5 112.5v1110h209v-1130c0 -94.667 -33 -175 -99 -241s-145.667 -99 -239 -99s-173 33 -239 99s-99 146.333 -99 241z
M138.998 1524l201 288h192l201 -288h-160l-137 194l-137 -194h-160z" />
    <glyph glyph-name="Udieresis" unicode="&#xdc;" horiz-adv-x="872" 
d="M98 328l-0.00195312 1130h209v-1110c0 -49.333 11.833 -86.833 35.5 -112.5s54.834 -38.5 93.501 -38.5s69.834 12.833 93.501 38.5s35.5 63.167 35.5 112.5v1110h209v-1130c0 -94.667 -33 -175 -99 -241s-145.667 -99 -239 -99s-173 33 -239 99s-99 146.333 -99 241z
M177.998 1548v209h184v-209h-184zM509.998 1548v209h184v-209h-184z" />
    <glyph glyph-name="Yacute" unicode="&#xdd;" horiz-adv-x="794" 
d="M6 1458h221l168 -579h4l168 579h221l-286 -842v-616h-209v616zM264 1524l185 288h221l-271 -288h-135z" />
    <glyph glyph-name="Thorn" unicode="&#xde;" horiz-adv-x="833" 
d="M98 0v1458h209v-254h105c59.333 0 110.333 -7.83301 153 -23.5s81.667 -41.834 117 -78.501c35.333 -37.333 59.833 -81.5 73.5 -132.5s20.5 -120.833 20.5 -209.5c0 -68.667 -4 -125.167 -12 -169.5s-23.667 -85.5 -47 -123.5c-61.333 -101.333 -162.333 -152 -303 -152
h-107v-315h-209zM307 512.001h100.998c20.667 0 39.334 1.33301 56.001 4s30.834 7.5 42.501 14.5s21.834 13.833 30.501 20.5s15.667 16.667 21 30s9.5 25 12.5 35s5.16699 24.333 6.5 43s2.16602 34.167 2.49902 46.5s0.5 29.833 0.5 52.5s-0.166992 39.5 -0.5 50.5
s-1 26.167 -2 45.5s-3 34 -6 44s-7 22 -12 36s-11.5 24.5 -19.5 31.5s-17.667 14.333 -29 22s-25 13 -41 16s-34 4.5 -54 4.5h-109v-496z" />
    <glyph glyph-name="germandbls" unicode="&#xdf;" horiz-adv-x="796" 
d="M86 0l-0.00195312 1130c0 96 26.333 176.667 79 242s129.334 98 230.001 98c58 0 107.833 -9.33301 149.5 -28s74.334 -45.334 98.001 -80.001s41 -73.667 52 -117s16.5 -92.333 16.5 -147c0 -72.667 -7.66699 -125.334 -23 -158.001s-48 -64.667 -98 -96
c80.667 -44.667 121 -114.334 121 -209.001v-361c0 -49.333 -5.66699 -91.666 -17 -126.999s-25.666 -63.166 -42.999 -83.499s-39.833 -36.333 -67.5 -48s-54.5 -19.167 -80.5 -22.5s-56.333 -5 -91 -5v196c31.333 0 54.166 7.33301 68.499 22s21.5 42.334 21.5 83.001v389
c0 25.333 -7.33301 42.833 -22 52.5s-37.334 14.5 -68.001 14.5v185c33.333 0 56.666 5.33301 69.999 16s20 32 20 64v164c0 32 -7.16699 56.667 -21.5 74s-40.166 26 -77.499 26c-39.333 0 -67.166 -13.333 -83.499 -40s-24.5 -73.334 -24.5 -140.001v-1094h-209z" />
    <glyph glyph-name="agrave" unicode="&#xe0;" 
d="M51 264c0 62 5.00195 114 15.002 156s27.333 78.167 52 108.5s58.5 52.5 101.5 66.5s96.833 21 161.5 21c10.667 0 27 -0.833008 49 -2.5s39 -2.83398 51 -3.50098v109c0 82 -34.667 123 -104 123c-28 0 -53.333 -9.33301 -76 -28s-37 -44.334 -43 -77.001h-203
c6 92.667 37.833 168.167 95.5 226.5s133.167 87.5 226.5 87.5c91.333 0 166.333 -28.5 225 -85.5s88 -137.833 88 -242.5v-723h-209v106h-4c-30 -42 -59.333 -72.167 -88 -90.5s-66.334 -27.5 -113.001 -27.5c-27.333 0 -52.833 3.83301 -76.5 11.5
s-47.334 20.834 -71.001 39.501s-42.5 47.334 -56.5 86.001s-21 85 -21 139zM106.002 1464h222l184 -288h-135zM260.002 305c0 -40.667 9.66699 -73 29 -97s46 -36 80 -36c35.333 0 62.833 11.667 82.5 35s29.5 56 29.5 98v141c-26.667 4.66699 -45.667 7 -57 7
c-49.333 0 -89 -11.667 -119 -35s-45 -61 -45 -113z" />
    <glyph glyph-name="aacute" unicode="&#xe1;" 
d="M51 264c0 62 5.00195 114 15.002 156s27.333 78.167 52 108.5s58.5 52.5 101.5 66.5s96.833 21 161.5 21c10.667 0 27 -0.833008 49 -2.5s39 -2.83398 51 -3.50098v109c0 82 -34.667 123 -104 123c-28 0 -53.333 -9.33301 -76 -28s-37 -44.334 -43 -77.001h-203
c6 92.667 37.833 168.167 95.5 226.5s133.167 87.5 226.5 87.5c91.333 0 166.333 -28.5 225 -85.5s88 -137.833 88 -242.5v-723h-209v106h-4c-30 -42 -59.333 -72.167 -88 -90.5s-66.334 -27.5 -113.001 -27.5c-27.333 0 -52.833 3.83301 -76.5 11.5
s-47.334 20.834 -71.001 39.501s-42.5 47.334 -56.5 86.001s-21 85 -21 139zM246.002 1176l184 288h221l-270 -288h-135zM260.002 305c0 -40.667 9.66699 -73 29 -97s46 -36 80 -36c35.333 0 62.833 11.667 82.5 35s29.5 56 29.5 98v141c-26.667 4.66699 -45.667 7 -57 7
c-49.333 0 -89 -11.667 -119 -35s-45 -61 -45 -113z" />
    <glyph glyph-name="acircumflex" unicode="&#xe2;" 
d="M51 264c0 62 5.00195 114 15.002 156s27.333 78.167 52 108.5s58.5 52.5 101.5 66.5s96.833 21 161.5 21c10.667 0 27 -0.833008 49 -2.5s39 -2.83398 51 -3.50098v109c0 82 -34.667 123 -104 123c-28 0 -53.333 -9.33301 -76 -28s-37 -44.334 -43 -77.001h-203
c6 92.667 37.833 168.167 95.5 226.5s133.167 87.5 226.5 87.5c91.333 0 166.333 -28.5 225 -85.5s88 -137.833 88 -242.5v-723h-209v106h-4c-30 -42 -59.333 -72.167 -88 -90.5s-66.334 -27.5 -113.001 -27.5c-27.333 0 -52.833 3.83301 -76.5 11.5
s-47.334 20.834 -71.001 39.501s-42.5 47.334 -56.5 86.001s-21 85 -21 139zM82.002 1176l201 288h192l201 -288h-160l-137 194l-137 -194h-160zM260.002 305c0 -40.667 9.66699 -73 29 -97s46 -36 80 -36c35.333 0 62.833 11.667 82.5 35s29.5 56 29.5 98v141
c-26.667 4.66699 -45.667 7 -57 7c-49.333 0 -89 -11.667 -119 -35s-45 -61 -45 -113z" />
    <glyph glyph-name="atilde" unicode="&#xe3;" 
d="M31 1194c14 70.667 36.833 126.169 68.5 166.502s77.834 60.5 138.501 60.5c22.667 0 74 -13.667 154 -41s126.667 -41 140 -41c28 0 49.833 8.66699 65.5 26s24.167 39.666 25.5 66.999h104c-14 -70.667 -36.833 -126.334 -68.5 -167.001s-77.834 -61 -138.501 -61
c-22.667 0 -74 13.667 -154 41s-127 41 -141 41c-27.333 0 -48.833 -8.5 -64.5 -25.5s-24.167 -39.167 -25.5 -66.5h-104zM51 264.002c0 62 5.00195 114 15.002 156s27.333 78.167 52 108.5s58.5 52.5 101.5 66.5s96.833 21 161.5 21c10.667 0 27 -0.833008 49 -2.5
s39 -2.83398 51 -3.50098v109c0 82 -34.667 123 -104 123c-28 0 -53.333 -9.33301 -76 -28s-37 -44.334 -43 -77.001h-203c6 92.667 37.833 168.167 95.5 226.5s133.167 87.5 226.5 87.5c91.333 0 166.333 -28.5 225 -85.5s88 -137.833 88 -242.5v-723h-209v106h-4
c-30 -42 -59.333 -72.167 -88 -90.5s-66.334 -27.5 -113.001 -27.5c-27.333 0 -52.833 3.83301 -76.5 11.5s-47.334 20.834 -71.001 39.501s-42.5 47.334 -56.5 86.001s-21 85 -21 139zM260.002 305.002c0 -40.667 9.66699 -73 29 -97s46 -36 80 -36
c35.333 0 62.833 11.667 82.5 35s29.5 56 29.5 98v141c-26.667 4.66699 -45.667 7 -57 7c-49.333 0 -89 -11.667 -119 -35s-45 -61 -45 -113z" />
    <glyph glyph-name="adieresis" unicode="&#xe4;" 
d="M51 264c0 62 5.00195 114 15.002 156s27.333 78.167 52 108.5s58.5 52.5 101.5 66.5s96.833 21 161.5 21c10.667 0 27 -0.833008 49 -2.5s39 -2.83398 51 -3.50098v109c0 82 -34.667 123 -104 123c-28 0 -53.333 -9.33301 -76 -28s-37 -44.334 -43 -77.001h-203
c6 92.667 37.833 168.167 95.5 226.5s133.167 87.5 226.5 87.5c91.333 0 166.333 -28.5 225 -85.5s88 -137.833 88 -242.5v-723h-209v106h-4c-30 -42 -59.333 -72.167 -88 -90.5s-66.334 -27.5 -113.001 -27.5c-27.333 0 -52.833 3.83301 -76.5 11.5
s-47.334 20.834 -71.001 39.501s-42.5 47.334 -56.5 86.001s-21 85 -21 139zM121.002 1200v209h184v-209h-184zM260.002 305c0 -40.667 9.66699 -73 29 -97s46 -36 80 -36c35.333 0 62.833 11.667 82.5 35s29.5 56 29.5 98v141c-26.667 4.66699 -45.667 7 -57 7
c-49.333 0 -89 -11.667 -119 -35s-45 -61 -45 -113zM453.002 1200v209h184v-209h-184z" />
    <glyph glyph-name="aring" unicode="&#xe5;" 
d="M51 264c0 62 5.00195 114 15.002 156s27.333 78.167 52 108.5s58.5 52.5 101.5 66.5s96.833 21 161.5 21c10.667 0 27 -0.833008 49 -2.5s39 -2.83398 51 -3.50098v109c0 82 -34.667 123 -104 123c-28 0 -53.333 -9.33301 -76 -28s-37 -44.334 -43 -77.001h-203
c6 92.667 37.833 168.167 95.5 226.5s133.167 87.5 226.5 87.5c91.333 0 166.333 -28.5 225 -85.5s88 -137.833 88 -242.5v-723h-209v106h-4c-30 -42 -59.333 -72.167 -88 -90.5s-66.334 -27.5 -113.001 -27.5c-27.333 0 -52.833 3.83301 -76.5 11.5
s-47.334 20.834 -71.001 39.501s-42.5 47.334 -56.5 86.001s-21 85 -21 139zM170.002 1352c0 57.333 20.5 106.5 61.5 147.5s90.167 61.5 147.5 61.5s106.5 -20.667 147.5 -62s61.5 -90.333 61.5 -147c0 -57.333 -20.5 -106.5 -61.5 -147.5s-90.167 -61.5 -147.5 -61.5
s-106.5 20.667 -147.5 62s-61.5 90.333 -61.5 147zM254.002 1352c0 -34.667 12 -64.167 36 -88.5s53.667 -36.5 89 -36.5s65 12.167 89 36.5s36 53.833 36 88.5s-12 64.167 -36 88.5s-53.667 36.5 -89 36.5s-65 -12.167 -89 -36.5s-36 -53.833 -36 -88.5zM260.002 305
c0 -40.667 9.66699 -73 29 -97s46 -36 80 -36c35.333 0 62.833 11.667 82.5 35s29.5 56 29.5 98v141c-26.667 4.66699 -45.667 7 -57 7c-49.333 0 -89 -11.667 -119 -35s-45 -61 -45 -113z" />
    <glyph glyph-name="ae" unicode="&#xe6;" horiz-adv-x="1171" 
d="M51 264c0 62 5.00195 114 15.002 156s27.333 78.167 52 108.5s58.5 52.5 101.5 66.5s96.833 21 161.5 21c10.667 0 27 -0.833008 49 -2.5s39 -2.83398 51 -3.50098v109c0 82 -34.667 123 -104 123c-28 0 -53.333 -9.33301 -76 -28s-37 -44.334 -43 -77.001h-203
c6 93.333 38 169 96 227s133.333 87 226 87c80 0 149 -24.667 207 -74c56 49.333 125.667 74 209 74c94.667 0 170.167 -30.667 226.5 -92s84.5 -138.666 84.5 -231.999v-287h-414v-141c0 -32.667 9.16699 -57.834 27.5 -75.501s43.5 -26.5 75.5 -26.5
c62 0 96 34.667 102 104h209c0 -90 -29.167 -164.5 -87.5 -223.5s-132.833 -88.833 -223.5 -89.5c-64.667 -0.666992 -120.834 12.833 -168.501 40.5s-82.5 63.167 -104.5 106.5c-24 -48 -57.5 -84.5 -100.5 -109.5s-90.833 -37.5 -143.5 -37.5
c-27.333 0 -52.833 3.83301 -76.5 11.5s-47.334 20.834 -71.001 39.501s-42.5 47.334 -56.5 86.001s-21 85 -21 139zM260.002 305c0 -40.667 9.66699 -73 29 -97s46 -36 80 -36c35.333 0 62.833 11.667 82.5 35s29.5 56 29.5 98v141c-26.667 4.66699 -45.667 7 -57 7
c-49.333 0 -89 -11.667 -119 -35s-45 -61 -45 -113zM690.002 604h205v119c0 38.667 -9 68.167 -27 88.5s-43 30.5 -75 30.5s-57.167 -10.167 -75.5 -30.5s-27.5 -49.833 -27.5 -88.5v-119z" />
    <glyph glyph-name="ccedilla" unicode="&#xe7;" 
d="M98 348l0.00390625 342.001c0 93.333 13 163.666 39 210.999c25.333 46 61.666 82.5 108.999 109.5s102 40.5 164 40.5c95.333 0 171 -30.833 227 -92.5s84 -141.5 84 -239.5h-209c0 82 -34 123 -102 123c-32 0 -57.167 -10.167 -75.5 -30.5s-27.5 -49.833 -27.5 -88.5
v-424c0 -32.667 9.16699 -57.834 27.5 -75.501s43.5 -26.5 75.5 -26.5c62 0 96 34.667 102 104h209c0 -84 -25 -154.5 -75 -211.5s-115 -89.5 -195 -97.5l-89 -115c26.667 2.66699 48 4 64 4c61.333 0 105.666 -15.5 132.999 -46.5s41 -66.5 41 -106.5
c0 -42 -13.5 -77.667 -40.5 -107s-58.833 -50 -95.5 -62s-75.334 -18 -116.001 -18c-54 0 -117.333 13 -190 39l35 86c55.333 -20.667 99.666 -31 132.999 -31c29.333 0 55 6.16699 77 18.5s33 34.166 33 65.499c0 22.667 -9.16699 41.334 -27.5 56.001s-39.833 22 -64.5 22
c-28 0 -54.667 -4.66699 -80 -14l-35 41l129 168c-50 6.66699 -94.167 22.834 -132.5 48.501s-67.833 57.834 -88.5 96.501c-26 47.333 -39 117.666 -39 210.999z" />
    <glyph glyph-name="egrave" unicode="&#xe8;" 
d="M68 348v342c0 94.667 12.667 165 38 211s61.666 82.5 108.999 109.5s102 40.5 164 40.5c94.667 0 170.167 -30.667 226.5 -92s84.5 -138.666 84.5 -231.999v-287h-414v-141c0 -32.667 9.16699 -57.834 27.5 -75.501s43.5 -26.5 75.5 -26.5c62 0 96 34.667 102 104h209
c0 -90.667 -29 -165.5 -87 -224.5s-132.667 -88.5 -224 -88.5c-62 0 -116.667 13.333 -164 40s-83.666 63 -108.999 109s-38 116.333 -38 211zM106 1464h222l184 -288h-135zM276 604h205v119c0 38.667 -9 68.167 -27 88.5s-43 30.5 -75 30.5s-57.167 -10.167 -75.5 -30.5
s-27.5 -49.833 -27.5 -88.5v-119z" />
    <glyph glyph-name="eacute" unicode="&#xe9;" 
d="M68 348v342c0 94.667 12.667 165 38 211s61.666 82.5 108.999 109.5s102 40.5 164 40.5c94.667 0 170.167 -30.667 226.5 -92s84.5 -138.666 84.5 -231.999v-287h-414v-141c0 -32.667 9.16699 -57.834 27.5 -75.501s43.5 -26.5 75.5 -26.5c62 0 96 34.667 102 104h209
c0 -90.667 -29 -165.5 -87 -224.5s-132.667 -88.5 -224 -88.5c-62 0 -116.667 13.333 -164 40s-83.666 63 -108.999 109s-38 116.333 -38 211zM246 1176l184 288h221l-270 -288h-135zM276 604h205v119c0 38.667 -9 68.167 -27 88.5s-43 30.5 -75 30.5
s-57.167 -10.167 -75.5 -30.5s-27.5 -49.833 -27.5 -88.5v-119z" />
    <glyph glyph-name="ecircumflex" unicode="&#xea;" 
d="M68 348v342c0 94.667 12.667 165 38 211s61.666 82.5 108.999 109.5s102 40.5 164 40.5c94.667 0 170.167 -30.667 226.5 -92s84.5 -138.666 84.5 -231.999v-287h-414v-141c0 -32.667 9.16699 -57.834 27.5 -75.501s43.5 -26.5 75.5 -26.5c62 0 96 34.667 102 104h209
c0 -90.667 -29 -165.5 -87 -224.5s-132.667 -88.5 -224 -88.5c-62 0 -116.667 13.333 -164 40s-83.666 63 -108.999 109s-38 116.333 -38 211zM82 1176l201 288h192l201 -288h-160l-137 194l-137 -194h-160zM276 604h205v119c0 38.667 -9 68.167 -27 88.5s-43 30.5 -75 30.5
s-57.167 -10.167 -75.5 -30.5s-27.5 -49.833 -27.5 -88.5v-119z" />
    <glyph glyph-name="edieresis" unicode="&#xeb;" 
d="M68 348v342c0 94.667 12.667 165 38 211s61.666 82.5 108.999 109.5s102 40.5 164 40.5c94.667 0 170.167 -30.667 226.5 -92s84.5 -138.666 84.5 -231.999v-287h-414v-141c0 -32.667 9.16699 -57.834 27.5 -75.501s43.5 -26.5 75.5 -26.5c62 0 96 34.667 102 104h209
c0 -90.667 -29 -165.5 -87 -224.5s-132.667 -88.5 -224 -88.5c-62 0 -116.667 13.333 -164 40s-83.666 63 -108.999 109s-38 116.333 -38 211zM121 1200v209h184v-209h-184zM276 604h205v119c0 38.667 -9 68.167 -27 88.5s-43 30.5 -75 30.5s-57.167 -10.167 -75.5 -30.5
s-27.5 -49.833 -27.5 -88.5v-119zM453 1200v209h184v-209h-184z" />
    <glyph glyph-name="igrave" unicode="&#xec;" horiz-adv-x="380" 
d="M-82 1464h221l185 -288h-136zM86 0v1038h209v-1038h-209z" />
    <glyph glyph-name="iacute" unicode="&#xed;" horiz-adv-x="380" 
d="M57 1176l185 288h221l-270 -288h-136zM86 0v1038h209v-1038h-209z" />
    <glyph glyph-name="icircumflex" unicode="&#xee;" horiz-adv-x="380" 
d="M-106 1176l200 288h193l200 -288h-159l-138 194l-137 -194h-159zM86 0v1038h209v-1038h-209z" />
    <glyph glyph-name="idieresis" unicode="&#xef;" horiz-adv-x="380" 
d="M-68 1200v209h185v-209h-185zM86 0v1038h209v-1038h-209zM264 1200v209h185v-209h-185z" />
    <glyph glyph-name="eth" unicode="&#xf0;" 
d="M68 348l-0.000976562 341.999c0 94.667 12.667 165 38 211s61.666 82.5 108.999 109.5s102 40.5 164 40.5c19.333 0 38 -4.33301 56 -13s32 -20 42 -34l4 4c-24.667 102 -56.667 177.667 -96 227l-152 -72l-57 82l141 66c-37.333 32 -89.666 61.333 -156.999 88l170 90
c63.333 -22 118 -54 164 -96l139 65l57 -82l-129 -59c86 -114 129 -274.333 129 -481v-488c0 -93.333 -13 -163.666 -39 -210.999c-25.333 -46 -61.5 -82.333 -108.5 -109s-101.5 -40 -163.5 -40s-116.667 13.333 -164 40s-83.666 63 -108.999 109s-38 116.333 -38 211z
M275.999 314.999c0 -38 9.16699 -67.167 27.5 -87.5s43.5 -30.5 75.5 -30.5s57 10 75 30s27 49.333 27 88v408c0 38.667 -9 68.167 -27 88.5s-43 30.5 -75 30.5s-57.167 -10.167 -75.5 -30.5s-27.5 -49.833 -27.5 -88.5v-408z" />
    <glyph glyph-name="ntilde" unicode="&#xf1;" horiz-adv-x="796" 
d="M51 1194c14 70.667 36.834 126.169 68.501 166.502s77.834 60.5 138.501 60.5c22.667 0 74.167 -13.667 154.5 -41s127.166 -41 140.499 -41c27.333 0 48.833 8.66699 64.5 26s24.167 39.666 25.5 66.999h105c-14 -70.667 -36.833 -126.334 -68.5 -167.001
s-77.834 -61 -138.501 -61c-22 0 -73 13.667 -153 41s-127.333 41 -142 41c-27.333 0 -48.833 -8.5 -64.5 -25.5s-24.167 -39.167 -25.5 -66.5h-105zM86.001 0.00195312v1038h209v-100h4c49.333 75.333 115 113 197 113c59.333 0 110 -20.833 152 -62.5s63 -105.5 63 -191.5
v-797h-209v719c0 38.667 -9 68.834 -27 90.501s-43.333 32.5 -76 32.5c-37.333 0 -64 -12 -80 -36s-24 -60 -24 -108v-698h-209z" />
    <glyph glyph-name="ograve" unicode="&#xf2;" 
d="M68 348v341.998c0 94.667 12.667 165 38 211s61.666 82.5 108.999 109.5s102 40.5 164 40.5s116.5 -13.5 163.5 -40.5s83.167 -63.5 108.5 -109.5c26 -47.333 39 -117.666 39 -210.999v-342c0 -93.333 -13 -163.666 -39 -210.999c-25.333 -46 -61.5 -82.333 -108.5 -109
s-101.5 -40 -163.5 -40s-116.667 13.333 -164 40s-83.666 63 -108.999 109s-38 116.333 -38 211zM106 1464h222l184 -288h-135zM276 314.998c0 -38 9.16699 -67.167 27.5 -87.5s43.5 -30.5 75.5 -30.5s57 10 75 30s27 49.333 27 88v408c0 38.667 -9 68.167 -27 88.5
s-43 30.5 -75 30.5s-57.167 -10.167 -75.5 -30.5s-27.5 -49.833 -27.5 -88.5v-408z" />
    <glyph glyph-name="oacute" unicode="&#xf3;" 
d="M68 348v341.998c0 94.667 12.667 165 38 211s61.666 82.5 108.999 109.5s102 40.5 164 40.5s116.5 -13.5 163.5 -40.5s83.167 -63.5 108.5 -109.5c26 -47.333 39 -117.666 39 -210.999v-342c0 -93.333 -13 -163.666 -39 -210.999c-25.333 -46 -61.5 -82.333 -108.5 -109
s-101.5 -40 -163.5 -40s-116.667 13.333 -164 40s-83.666 63 -108.999 109s-38 116.333 -38 211zM246 1176l184 288h221l-270 -288h-135zM276 314.998c0 -38 9.16699 -67.167 27.5 -87.5s43.5 -30.5 75.5 -30.5s57 10 75 30s27 49.333 27 88v408
c0 38.667 -9 68.167 -27 88.5s-43 30.5 -75 30.5s-57.167 -10.167 -75.5 -30.5s-27.5 -49.833 -27.5 -88.5v-408z" />
    <glyph glyph-name="ocircumflex" unicode="&#xf4;" 
d="M68 348v341.998c0 94.667 12.667 165 38 211s61.666 82.5 108.999 109.5s102 40.5 164 40.5s116.5 -13.5 163.5 -40.5s83.167 -63.5 108.5 -109.5c26 -47.333 39 -117.666 39 -210.999v-342c0 -93.333 -13 -163.666 -39 -210.999c-25.333 -46 -61.5 -82.333 -108.5 -109
s-101.5 -40 -163.5 -40s-116.667 13.333 -164 40s-83.666 63 -108.999 109s-38 116.333 -38 211zM82 1176l201 288h192l201 -288h-160l-137 194l-137 -194h-160zM276 314.998c0 -38 9.16699 -67.167 27.5 -87.5s43.5 -30.5 75.5 -30.5s57 10 75 30s27 49.333 27 88v408
c0 38.667 -9 68.167 -27 88.5s-43 30.5 -75 30.5s-57.167 -10.167 -75.5 -30.5s-27.5 -49.833 -27.5 -88.5v-408z" />
    <glyph glyph-name="otilde" unicode="&#xf5;" 
d="M31 1194c14 70.667 36.833 126.169 68.5 166.502s77.834 60.5 138.501 60.5c22.667 0 74 -13.667 154 -41s126.667 -41 140 -41c28 0 49.833 8.66699 65.5 26s24.167 39.666 25.5 66.999h104c-14 -70.667 -36.833 -126.334 -68.5 -167.001s-77.834 -61 -138.501 -61
c-22.667 0 -74 13.667 -154 41s-127 41 -141 41c-27.333 0 -48.833 -8.5 -64.5 -25.5s-24.167 -39.167 -25.5 -66.5h-104zM68 348.002v341.998c0 94.667 12.667 165 38 211s61.666 82.5 108.999 109.5s102 40.5 164 40.5s116.5 -13.5 163.5 -40.5s83.167 -63.5 108.5 -109.5
c26 -47.333 39 -117.666 39 -210.999v-342c0 -93.333 -13 -163.666 -39 -210.999c-25.333 -46 -61.5 -82.333 -108.5 -109s-101.5 -40 -163.5 -40s-116.667 13.333 -164 40s-83.666 63 -108.999 109s-38 116.333 -38 211zM276 315c0 -38 9.16699 -67.167 27.5 -87.5
s43.5 -30.5 75.5 -30.5s57 10 75 30s27 49.333 27 88v408c0 38.667 -9 68.167 -27 88.5s-43 30.5 -75 30.5s-57.167 -10.167 -75.5 -30.5s-27.5 -49.833 -27.5 -88.5v-408z" />
    <glyph glyph-name="odieresis" unicode="&#xf6;" 
d="M68 348v341.998c0 94.667 12.667 165 38 211s61.666 82.5 108.999 109.5s102 40.5 164 40.5s116.5 -13.5 163.5 -40.5s83.167 -63.5 108.5 -109.5c26 -47.333 39 -117.666 39 -210.999v-342c0 -93.333 -13 -163.666 -39 -210.999c-25.333 -46 -61.5 -82.333 -108.5 -109
s-101.5 -40 -163.5 -40s-116.667 13.333 -164 40s-83.666 63 -108.999 109s-38 116.333 -38 211zM121 1200v209h184v-209h-184zM276 314.998c0 -38 9.16699 -67.167 27.5 -87.5s43.5 -30.5 75.5 -30.5s57 10 75 30s27 49.333 27 88v408c0 38.667 -9 68.167 -27 88.5
s-43 30.5 -75 30.5s-57.167 -10.167 -75.5 -30.5s-27.5 -49.833 -27.5 -88.5v-408zM453 1200v209h184v-209h-184z" />
    <glyph glyph-name="divide" unicode="&#xf7;" horiz-adv-x="1228" 
d="M96 436v164h1037v-164h-1037zM483 94c0 36 12.833 66.833 38.5 92.5s56.5 38.5 92.5 38.5s66.833 -12.833 92.5 -38.5s38.5 -56.5 38.5 -92.5s-12.833 -66.833 -38.5 -92.5s-56.5 -38.5 -92.5 -38.5s-66.833 12.833 -92.5 38.5s-38.5 56.5 -38.5 92.5zM483 942
c0 36 12.833 66.833 38.5 92.5s56.5 38.5 92.5 38.5s66.833 -12.833 92.5 -38.5s38.5 -56.5 38.5 -92.5s-12.833 -66.833 -38.5 -92.5s-56.5 -38.5 -92.5 -38.5s-66.833 12.833 -92.5 38.5s-38.5 56.5 -38.5 92.5z" />
    <glyph glyph-name="oslash" unicode="&#xf8;" 
d="M8 -25l101 169.999c-27.333 53.333 -41 113 -41 179v391c0 99.333 28 180.166 84 242.499s131.667 93.5 227 93.5c89.333 0 161.666 -28.667 216.999 -86l84 141l70 -43l-101 -170c27.333 -53.333 41 -112.666 41 -177.999v-391c0 -99.333 -28 -180.166 -84 -242.499
s-131.667 -93.5 -227 -93.5c-89.333 0 -161.666 28.667 -216.999 86l-84 -142zM276 427.999h5l194 334c-8.66699 53.333 -40.667 80 -96 80c-32 0 -57.167 -10.167 -75.5 -30.5s-27.5 -49.833 -27.5 -88.5v-295zM283 275.999c4 -25.333 14.332 -44.833 30.999 -58.5
s38.334 -20.5 65.001 -20.5c32 0 57 10 75 30s27 49.333 27 88v295h-4z" />
    <glyph glyph-name="ugrave" unicode="&#xf9;" horiz-adv-x="796" 
d="M86 242v796h209v-719c0 -38.667 8.83301 -68.667 26.5 -90s42.834 -32 75.501 -32c38 0 65 11.833 81 35.5s24 59.5 24 107.5v698h209v-1038h-209v100h-4c-48.667 -74.667 -114.334 -112 -197.001 -112c-59.333 0 -110 20.833 -152 62.5s-63 105.5 -63 191.5zM127 1464
h221l184 -288h-135z" />
    <glyph glyph-name="uacute" unicode="&#xfa;" horiz-adv-x="796" 
d="M86 242v796h209v-719c0 -38.667 8.83301 -68.667 26.5 -90s42.834 -32 75.501 -32c38 0 65 11.833 81 35.5s24 59.5 24 107.5v698h209v-1038h-209v100h-4c-48.667 -74.667 -114.334 -112 -197.001 -112c-59.333 0 -110 20.833 -152 62.5s-63 105.5 -63 191.5zM266 1176
l185 288h221l-271 -288h-135z" />
    <glyph glyph-name="ucircumflex" unicode="&#xfb;" horiz-adv-x="796" 
d="M86 242v796h209v-719c0 -38.667 8.83301 -68.667 26.5 -90s42.834 -32 75.501 -32c38 0 65 11.833 81 35.5s24 59.5 24 107.5v698h209v-1038h-209v100h-4c-48.667 -74.667 -114.334 -112 -197.001 -112c-59.333 0 -110 20.833 -152 62.5s-63 105.5 -63 191.5zM102 1176
l201 288h193l200 -288h-159l-138 194l-137 -194h-160z" />
    <glyph glyph-name="udieresis" unicode="&#xfc;" horiz-adv-x="796" 
d="M86 242v796h209v-719c0 -38.667 8.83301 -68.667 26.5 -90s42.834 -32 75.501 -32c38 0 65 11.833 81 35.5s24 59.5 24 107.5v698h209v-1038h-209v100h-4c-48.667 -74.667 -114.334 -112 -197.001 -112c-59.333 0 -110 20.833 -152 62.5s-63 105.5 -63 191.5zM141 1200
v209h185v-209h-185zM473 1200v209h184v-209h-184z" />
    <glyph glyph-name="yacute" unicode="&#xfd;" horiz-adv-x="720" 
d="M-2 1038l221 -0.000976562l143 -647h5l141 647h215l-299 -1218c-38.667 -160 -135 -240 -289 -240h-57v197h47c30 0 53 5.83301 69 17.5s30.833 36.334 44.5 74.001s28.5 97.167 44.5 178.5zM227 1176l185 288h221l-271 -288h-135z" />
    <glyph glyph-name="thorn" unicode="&#xfe;" horiz-adv-x="796" 
d="M86 -420l-0.00292969 1878h209v-514c23.333 26 41.333 44.833 54 56.5s31.834 23 57.501 34s54.834 16.5 87.501 16.5c85.333 0 146 -33 182 -99c23.333 -42 35 -116.333 35 -223v-395c0 -76.667 -2.16699 -132.5 -6.5 -167.5s-13.166 -63.167 -26.499 -84.5
c-40 -62.667 -102 -94 -186 -94c-82 0 -146.333 35.333 -193 106h-4v-514h-209zM294.997 309c0 -32.667 9.83301 -59.5 29.5 -80.5s44.5 -31.5 74.5 -31.5c68.667 0 103 40.667 103 122v381c0 44 -8.5 78.667 -25.5 104s-42.833 38 -77.5 38c-31.333 0 -56.5 -12 -75.5 -36
s-28.5 -55 -28.5 -93v-404z" />
    <glyph glyph-name="ydieresis" unicode="&#xff;" horiz-adv-x="720" 
d="M-2 1038l221 -0.000976562l143 -647h5l141 647h215l-299 -1218c-38.667 -160 -135 -240 -289 -240h-57v197h47c30 0 53 5.83301 69 17.5s30.833 36.334 44.5 74.001s28.5 97.167 44.5 178.5zM102 1200v209h185v-209h-185zM434 1200v209h184v-209h-184z" />
    <glyph glyph-name="OE" unicode="&#x152;" horiz-adv-x="1249" 
d="M98 334l-0.000976562 790c0 96 28.333 177.667 85 245s133 101 229 101c79.333 0 137.333 -28.667 174 -86h4v74h622v-196h-413v-428h360v-197h-360v-428h413v-209h-622v70h-4c-18 -24 -43.167 -43.667 -75.5 -59s-65.166 -23 -98.499 -23
c-96 0 -172.333 33.667 -229 101s-85 149 -85 245zM306.999 324c0 -42 13.167 -77.833 39.5 -107.5s60.5 -44.5 102.5 -44.5s76 14.833 102 44.5s39 65.5 39 107.5v811c0 42 -13 77.667 -39 107s-60 44 -102 44s-76.167 -14.667 -102.5 -44s-39.5 -65 -39.5 -107v-811z" />
    <glyph glyph-name="oe" unicode="&#x153;" horiz-adv-x="1171" 
d="M68 348l-0.000976562 342c0 94.667 12.667 165 38 211s61.666 82.5 108.999 109.5s102 40.5 164 40.5c82 0 151 -23.333 207 -70c52.667 46.667 121.667 70 207 70c94.667 0 170.167 -30.667 226.5 -92s84.5 -138.666 84.5 -231.999v-287h-414v-141
c0 -32.667 9.16699 -57.834 27.5 -75.501s43.5 -26.5 75.5 -26.5c62 0 96 34.667 102 104h209c0 -90.667 -29 -165.5 -87 -224.5s-132.667 -88.5 -224 -88.5c-41.333 0 -82 6 -122 18s-71 29.667 -93 53c-22.667 -22 -51.667 -39.333 -87 -52s-72.666 -19 -111.999 -19
c-62 0 -116.667 13.333 -164 40s-83.666 63 -108.999 109s-38 116.333 -38 211zM275.999 315c0 -38 9.16699 -67.167 27.5 -87.5s43.5 -30.5 75.5 -30.5s57 10 75 30s27 49.333 27 88v408c0 38.667 -9 68.167 -27 88.5s-43 30.5 -75 30.5s-57.167 -10.167 -75.5 -30.5
s-27.5 -49.833 -27.5 -88.5v-408zM689.999 604h205v119c0 38.667 -9 68.167 -27 88.5s-43 30.5 -75 30.5s-57.167 -10.167 -75.5 -30.5s-27.5 -49.833 -27.5 -88.5v-119z" />
    <glyph glyph-name="Ydieresis" unicode="&#x178;" horiz-adv-x="794" 
d="M6 1458h221l168 -579h4l168 579h221l-286 -842v-616h-209v616zM139 1548v209h185v-209h-185zM471 1548v209h184v-209h-184z" />
    <glyph glyph-name="circumflex" unicode="&#x2c6;" horiz-adv-x="380" 
d="M-106 1176l200 288h193l200 -288h-159l-138 194l-137 -194h-159z" />
    <glyph glyph-name="tilde" unicode="&#x2dc;" horiz-adv-x="380" 
d="M-158 1194c14 70.667 36.8359 126.169 68.5029 166.502s77.834 60.5 138.501 60.5c22.667 0 74.167 -13.667 154.5 -41s127.166 -41 140.499 -41c27.333 0 48.833 8.66699 64.5 26s24.167 39.666 25.5 66.999h105c-14 -70.667 -36.833 -126.334 -68.5 -167.001
s-77.834 -61 -138.501 -61c-22.667 0 -73.834 13.667 -153.501 41s-126.834 41 -141.501 41c-27.333 0 -48.833 -8.5 -64.5 -25.5s-24.167 -39.167 -25.5 -66.5h-105z" />
    <glyph glyph-name="uni2000" unicode="&#x2000;" horiz-adv-x="959" 
 />
    <glyph glyph-name="uni2001" unicode="&#x2001;" horiz-adv-x="1919" 
 />
    <glyph glyph-name="uni2002" unicode="&#x2002;" horiz-adv-x="959" 
 />
    <glyph glyph-name="uni2003" unicode="&#x2003;" horiz-adv-x="1919" 
 />
    <glyph glyph-name="uni2004" unicode="&#x2004;" horiz-adv-x="639" 
 />
    <glyph glyph-name="uni2005" unicode="&#x2005;" horiz-adv-x="479" 
 />
    <glyph glyph-name="uni2006" unicode="&#x2006;" horiz-adv-x="319" 
 />
    <glyph glyph-name="uni2007" unicode="&#x2007;" horiz-adv-x="319" 
 />
    <glyph glyph-name="uni2008" unicode="&#x2008;" horiz-adv-x="239" 
 />
    <glyph glyph-name="uni2009" unicode="&#x2009;" horiz-adv-x="383" 
 />
    <glyph glyph-name="uni200A" unicode="&#x200a;" horiz-adv-x="106" 
 />
    <glyph glyph-name="uni2010" unicode="&#x2010;" horiz-adv-x="796" 
d="M90 463v209h617v-209h-617z" />
    <glyph glyph-name="uni2011" unicode="&#x2011;" horiz-adv-x="796" 
d="M90 463v209h617v-209h-617z" />
    <glyph glyph-name="figuredash" unicode="&#x2012;" horiz-adv-x="796" 
d="M90 463v209h617v-209h-617z" />
    <glyph glyph-name="endash" unicode="&#x2013;" horiz-adv-x="1024" 
d="M0 469v197h1024v-197h-1024z" />
    <glyph glyph-name="emdash" unicode="&#x2014;" horiz-adv-x="2048" 
d="M0 469v197h2048v-197h-2048z" />
    <glyph glyph-name="quoteleft" unicode="&#x2018;" horiz-adv-x="380" 
d="M86 1098v209l209 151v-360h-209z" />
    <glyph glyph-name="quoteright" unicode="&#x2019;" horiz-adv-x="380" 
d="M86 1098v360h209v-209z" />
    <glyph glyph-name="quotesinglbase" unicode="&#x201a;" horiz-adv-x="380" 
d="M86 -152v361h209v-209z" />
    <glyph glyph-name="quotedblleft" unicode="&#x201c;" horiz-adv-x="569" 
d="M37 1098v209l209 151v-360h-209zM324 1098v209l208 151v-360h-208z" />
    <glyph glyph-name="quotedblright" unicode="&#x201d;" horiz-adv-x="569" 
d="M37 1098v360h209v-209zM324 1098v360h208v-209z" />
    <glyph glyph-name="quotedblbase" unicode="&#x201e;" horiz-adv-x="569" 
d="M37 -152v361h209v-209zM324 -152v361h208v-209z" />
    <glyph glyph-name="bullet" unicode="&#x2022;" horiz-adv-x="1024" 
d="M147 729c0 100.667 35.667 186.667 107 258s157.333 107 258 107s186.667 -35.667 258 -107s107 -157.333 107 -258s-35.667 -186.5 -107 -257.5s-157.333 -106.5 -258 -106.5s-186.667 35.5 -258 106.5s-107 156.833 -107 257.5z" />
    <glyph glyph-name="ellipsis" unicode="&#x2026;" horiz-adv-x="2048" 
d="M238 0v209h208v-209h-208zM920 0v209h208v-209h-208zM1602 0v209h208v-209h-208z" />
    <glyph glyph-name="uni202F" unicode="&#x202f;" horiz-adv-x="383" 
 />
    <glyph glyph-name="guilsinglleft" unicode="&#x2039;" horiz-adv-x="493" 
d="M20 567l416 414v-209l-207 -205l207 -205v-208z" />
    <glyph glyph-name="guilsinglright" unicode="&#x203a;" horiz-adv-x="493" 
d="M57 154v208l207 205l-207 205v209l416 -414z" />
    <glyph glyph-name="uni205F" unicode="&#x205f;" horiz-adv-x="479" 
 />
    <glyph glyph-name="trademark" unicode="&#x2122;" horiz-adv-x="2027" 
d="M80 1323v135h668v-135h-261v-709h-147v709h-260zM850 614v844h233l240 -616l240 616h233v-844h-147v709h-4l-281 -709h-84l-279 709h-4v-709h-147z" />
    <glyph glyph-name="uniE000" unicode="&#xe000;" horiz-adv-x="1034" 
d="M0 0v1034h1034v-1034h-1034z" />
    <glyph glyph-name="uniFB01" unicode="&#xfb01;" horiz-adv-x="833" 
d="M10 874v164.001h103v142c0 48.667 7.5 91.334 22.5 128.001s35.333 65.667 61 87s54 37.166 85 47.499s64.167 15.5 99.5 15.5h96v-196h-94c-19.333 0 -34.333 -6.33301 -45 -19s-16 -30.334 -16 -53.001v-152h155v-164h-155v-874h-209v874h-103zM539 0.000976562v1038
h209v-1038h-209zM539 1249v209h209v-209h-209z" />
    <glyph glyph-name="uniFB02" unicode="&#xfb02;" horiz-adv-x="833" 
d="M10 874v164.001h103v142c0 48.667 7.5 91.334 22.5 128.001s35.333 65.667 61 87s54 37.166 85 47.499s64.167 15.5 99.5 15.5h96v-196h-94c-19.333 0 -34.333 -6.33301 -45 -19s-16 -30.334 -16 -53.001v-152h155v-164h-155v-874h-209v874h-103zM539 279.001
l0.000976562 1179h209v-1165c0 -38.667 7 -65.5 21 -80.5s41 -24.5 81 -28.5v-196c-52 0 -95.667 4 -131 12s-67.333 22.167 -96 42.5s-49.834 50 -63.501 89s-20.5 88.167 -20.5 147.5z" />
    <glyph glyph-name="glyph1" horiz-adv-x="0" 
 />
    <glyph glyph-name="glyph2" horiz-adv-x="2048" 
 />
  </font>
</defs>
</svg>
